<svg width="512" height="512" version="1.1" xmlns="http://www.w3.org/2000/svg" desc="Created with imagetracer.js version 1.2.6" ><path fill="rgb(0,0,0)" stroke="rgb(0,0,0)" stroke-width="1" opacity="0" d="M 0 0 L 511.5 0 L 512 0.5 L 512 61 L 0.5 61 L 0 60.5 L 0 0 Z " /><path fill="rgb(0,0,0)" stroke="rgb(0,0,0)" stroke-width="1" opacity="0" d="M 0 451 L 511.5 451 L 512 451.5 L 512 512 L 0.5 512 L 0 511.5 L 0 451 Z " /><path fill="rgb(143,217,170)" stroke="rgb(143,217,170)" stroke-width="1" opacity="0.996078431372549" d="M 27.5 85 L 483.5 85 L 488 88.5 L 489 90.5 L 489 421.5 L 485.5 426 L 483.5 427 L 27.5 427 L 23 422.5 L 23 89.5 L 27.5 85 Z M 39 101 L 39 162 L 80 162 L 82 163 L 85 167 L 85 207 L 95 212 Q 111 224 116 248 L 116 265 L 115 270 L 105 290 Q 99 300 87 304 L 85 306 L 85 346 L 80 350 L 39 350 L 39 411 L 248 411 L 248 310 Q 233 308 224 300 Q 207 289 202 266 L 202 247 L 203 242 L 212 224 Q 224 206 248 202 L 248 101 L 39 101 Z M 264 101 L 264 202 Q 279 204 289 212 Q 305 223 310 247 L 310 266 Q 307 279 300 289 Q 289 305 266 310 L 264 311 L 264 411 L 473 411 L 473 411 L 473 350 L 433 350 L 431 349 L 427 346 L 427 305 L 418 300 Q 401 288 396 265 L 396 248 L 397 243 L 407 223 Q 414 213 426 207 L 427 207 L 427 167 L 433 162 L 473 162 L 473 102 L 473 101 L 264 101 Z M 39 178 L 39 334 L 40 334 L 69 334 L 69 179 L 69 178 L 39 178 Z M 443 178 L 443 334 L 444 334 L 473 334 L 473 179 L 473 178 L 443 178 Z M 246 219 Q 236 222 230 228 Q 221 236 218 250 Q 217 260 219 267 Q 222 276 228 283 Q 235 291 248 293 L 248 220 L 246 219 Z M 264 219 L 264 293 L 278 288 L 284 283 L 292 270 L 294 263 Q 295 252 293 246 Q 290 236 284 230 Q 277 221 264 219 Z M 86 226 L 86 286 Q 97 278 100 262 L 100 251 L 98 243 Q 94 232 86 226 Z M 427 226 Q 415 234 412 251 Q 411 269 419 279 L 427 286 L 427 226 Z " /><path fill="rgb(115,208,147)" stroke="rgb(115,208,147)" stroke-width="1" opacity="1" d="M 0 61 L 512 61 L 512 451 L 0 451 L 0 61 Z M 28 85 L 23 90 L 23 423 L 28 427 L 484 427 L 486 426 L 489 422 L 489 91 L 488 89 L 484 85 L 28 85 Z " /><path fill="rgb(115,208,147)" stroke="rgb(115,208,147)" stroke-width="1" opacity="1" d="M 39 101 L 248 101 L 248 202 Q 223.9 206.1 212 223.5 L 203 241.5 L 202 246.5 L 202 265.5 Q 206.9 288.6 223.5 300 Q 233.3 307.9 248 310 L 248 411 L 39 411 L 39 350 L 79.5 350 L 85 345.5 L 85 305.5 L 86.5 304 Q 98.5 299.5 105 289.5 L 115 269.5 L 116 264.5 L 116 247.5 Q 111.1 223.9 94.5 212 L 85 207 L 85 166.5 L 81.5 163 L 79.5 162 L 39 162 L 39 101 Z " /><path fill="rgb(115,208,147)" stroke="rgb(115,208,147)" stroke-width="1" opacity="1" d="M 264 101 L 472.5 101 L 473 101.5 L 473 162 L 432.5 162 L 427 166.5 L 427 206.5 L 425.5 207 Q 414.3 212.8 407 222.5 L 397 242.5 L 396 247.5 L 396 264.5 Q 400.9 288.1 417.5 300 L 427 305 L 427 345.5 L 430.5 349 L 432.5 350 L 473 350 L 473 410.5 L 472.5 411 L 264 411 L 264 310.5 L 265.5 310 Q 288.6 305.1 300 288.5 Q 307.3 279.3 310 265.5 L 310 246.5 Q 305.1 223.4 288.5 212 Q 278.7 204.1 264 202 L 264 101 Z " /><path fill="rgb(115,208,147)" stroke="rgb(115,208,147)" stroke-width="1" opacity="1" d="M 39 178 L 68.5 178 L 69 178.5 L 69 334 L 39.5 334 L 39 333.5 L 39 178 Z " /><path fill="rgb(115,208,147)" stroke="rgb(115,208,147)" stroke-width="1" opacity="1" d="M 443 178 L 472.5 178 L 473 178.5 L 473 334 L 443.5 334 L 443 333.5 L 443 178 Z " /><path fill="rgb(115,208,147)" stroke="rgb(115,208,147)" stroke-width="1" opacity="1" d="M 245.5 219 L 248 219.5 L 248 293 Q 235.4 290.8 228 282.5 Q 221.9 276.1 219 266.5 Q 216.7 259.8 218 249.5 Q 220.9 235.9 229.5 228 Q 235.9 221.9 245.5 219 Z " /><path fill="rgb(115,208,147)" stroke="rgb(115,208,147)" stroke-width="1" opacity="1" d="M 264 219 Q 276.6 221.2 284 229.5 Q 290.1 235.9 293 245.5 Q 295.3 252.2 294 262.5 L 292 269.5 L 284 283 L 277.5 288 L 264 293 L 264 219 Z " /><path fill="rgb(115,208,147)" stroke="rgb(115,208,147)" stroke-width="1" opacity="1" d="M 85.5 226 Q 93.8 232.2 98 242.5 L 100 250.5 L 100 261.5 Q 96.9 277.9 85.5 286 L 85.5 226 Z " /><path fill="rgb(115,208,147)" stroke="rgb(115,208,147)" stroke-width="1" opacity="1" d="M 426.5 226 L 427 285.5 L 419 278.5 Q 410.7 269.3 412 250.5 Q 415.1 234.1 426.5 226 Z " /></svg>