<svg width="512" height="512" version="1.1" xmlns="http://www.w3.org/2000/svg" desc="Created with imagetracer.js version 1.2.6" ><path fill="rgb(0,0,0)" stroke="rgb(0,0,0)" stroke-width="1" opacity="0.996078431372549" d="M 247.5 75 L 264.5 75 L 281.5 79 Q 302.3 87.2 315 103.5 Q 323.6 114.4 328 129.5 L 330 138.5 L 330 159.5 L 328 169.5 L 323 182.5 Q 315.9 196.3 304.5 206 L 298 210.5 Q 325.7 221.8 344 242.5 Q 365 265 372 301.5 Q 370.3 307.8 373 309.5 L 373 390.5 Q 368.5 415 351.5 427 L 338.5 434 L 326.5 437 L 185.5 437 Q 161 432.5 149 415.5 L 142 402.5 L 139 390.5 L 139 309.5 L 144 284.5 L 151 267.5 Q 161.3 247.3 177.5 233 Q 192.9 218.9 214 210.5 L 199 197.5 Q 188.9 186.1 184 169.5 L 182 159.5 L 182 138.5 Q 188 107 209.5 91 Q 218.5 83.5 230.5 79 L 247.5 75 Z M 248 96 Q 231 99 222 108 L 211 120 L 204 135 L 203 146 L 202 147 Q 203 173 217 187 Q 229 199 250 203 L 263 203 L 275 200 Q 286 196 294 188 Q 301 180 306 170 L 310 152 L 309 139 L 307 132 L 298 116 Q 289 105 276 99 L 265 96 L 248 96 Z M 245 224 L 230 227 L 219 231 Q 202 238 190 250 Q 166 271 160 309 L 160 391 L 166 404 Q 173 413 186 416 L 327 416 L 340 410 Q 349 403 352 391 L 352 309 Q 350 307 351 302 Q 344 272 326 254 Q 311 237 289 229 L 268 224 L 245 224 Z " /><path fill="rgb(0,0,0)" stroke="rgb(0,0,0)" stroke-width="1" opacity="0.996078431372549" d="M 88.5 107 L 103.5 107 L 119.5 111 Q 134.8 117.8 145 129.5 Q 159.6 144.9 160 174.5 L 159 175.5 L 158 186.5 L 152 201.5 Q 145.4 213.4 135 221.5 L 144 228.5 L 145 235.5 L 140.5 242 L 133.5 244 L 113.5 236 L 101.5 235 L 100.5 234 L 91.5 234 L 71.5 238 L 58.5 244 Q 46.6 251.1 38 261.5 Q 26.6 274.6 22 294.5 Q 23.5 300 21 301.5 L 21 356.5 Q 23.8 369.7 32.5 377 L 46.5 384 L 108.5 384 L 116 388.5 L 118 395.5 Q 116.8 401.3 112.5 404 L 109.5 405 L 46.5 405 Q 23 400.5 11 384.5 L 4 372.5 L 0 355.5 L 0 304.5 L 1 303.5 L 2 289.5 L 9 268.5 Q 18.9 248.4 35.5 235 L 57 221.5 Q 57.8 219.3 55.5 220 Q 43.6 210.4 37 195.5 L 33 182.5 L 32 166.5 L 33 165.5 L 34 154.5 L 40 139.5 L 54.5 122 L 72.5 111 L 88.5 107 Z M 89 128 L 77 132 L 65 140 L 55 157 L 53 166 L 54 182 Q 57 192 63 199 L 73 207 L 87 213 Q 92 212 94 214 Q 113 214 124 204 Q 136 195 139 177 L 139 166 L 137 157 L 127 141 Q 120 132 108 129 Q 100 127 89 128 Z " /><path fill="rgb(0,0,0)" stroke="rgb(0,0,0)" stroke-width="1" opacity="0.996078431372549" d="M 408.5 107 L 423.5 107 L 439.5 111 Q 454.8 117.8 465 129.5 Q 479.6 144.9 480 174.5 L 479 175.5 L 478 186.5 L 472 201.5 Q 465.4 213.4 455 221.5 Q 476.9 231.6 491 249.5 Q 505.9 267.1 511 294.5 L 511 304.5 L 512 305.5 L 512 355.5 L 510 366.5 L 505 378.5 L 491.5 394 L 477.5 402 L 465.5 405 L 402.5 405 L 396 400.5 L 394 393.5 L 398.5 386 L 403.5 384 L 465.5 384 Q 477.4 380.9 484 372.5 L 490 361.5 L 491 356.5 L 491 301.5 Q 485.5 268 463.5 251 Q 453.7 242.8 440.5 238 L 428.5 235 L 411.5 234 L 410.5 235 L 398.5 236 L 376.5 244 L 369 239.5 Q 366.3 237.2 367 231.5 L 372.5 224 L 377 221.5 Q 364.1 211.4 357 195.5 L 353 182.5 L 352 166.5 L 353 165.5 L 354 154.5 L 360 139.5 L 374.5 122 L 392.5 111 L 408.5 107 Z M 409 128 L 397 132 L 385 140 L 375 157 L 373 166 L 374 182 Q 377 192 383 199 L 393 207 L 407 213 Q 412 212 414 214 Q 433 214 444 204 Q 456 195 459 177 L 459 166 L 457 157 L 447 141 Q 440 132 428 129 Q 420 127 409 128 Z " /><path fill="rgb(0,0,0)" stroke="rgb(0,0,0)" stroke-width="1" opacity="0" d="M 0 0 L 512 0 L 512 298.5 L 511 298.5 L 509 283.5 L 503 267.5 Q 493.5 249 478.5 236 Q 468.6 226.9 455 221.5 L 464 213.5 Q 473.4 203.4 478 188.5 L 480 179.5 L 480 162.5 Q 474.9 133.1 454.5 119 L 440.5 111 L 431.5 108 L 415.5 106 L 414.5 107 L 400.5 108 L 383.5 115 L 365 131.5 Q 357.8 140.3 354 152.5 L 352 161.5 L 352 179.5 Q 356.9 205.1 373.5 219 L 377 221.5 L 368 227.5 L 367 236.5 L 372.5 243 L 380.5 244 Q 388.8 238.3 400.5 236 Q 405.3 237.2 406.5 235 L 425.5 235 Q 454 240 470 257.5 Q 484.9 272.6 490 297.5 L 490 359.5 Q 486.7 371.7 477.5 378 L 470.5 382 L 462.5 384 L 401.5 384 L 395 389.5 L 394 397.5 L 397.5 403 L 405.5 406 L 458.5 406 L 459.5 405 L 468.5 405 L 478.5 402 Q 490.8 396.8 499 387.5 Q 509 377.5 511.5 360 L 512 512 L 0.5 512 L 0 511.5 L 0 360.5 L 1 360.5 Q 4.1 381.4 17.5 392 Q 27.6 401.4 43.5 405 L 52.5 405 L 53.5 406 L 106.5 406 L 111.5 405 L 116 401.5 Q 119 398.5 118 391.5 L 112.5 385 L 110.5 384 L 49.5 384 Q 34.2 381.3 27 370.5 L 22 359.5 L 22 297.5 Q 24.8 281.8 32 270.5 L 43 256 L 54.5 247 L 67.5 240 L 86.5 235 L 105.5 235 L 121.5 239 L 131.5 244 L 137.5 244 L 144 238.5 L 145 229.5 L 140.5 224 L 135 221.5 L 144 213.5 Q 153.4 203.4 158 188.5 L 160 179.5 L 160 162.5 Q 154.9 133.1 134.5 119 L 120.5 111 L 111.5 108 L 95.5 106 L 94.5 107 L 80.5 108 L 63.5 115 L 45 131.5 Q 37.8 140.3 34 152.5 L 32 161.5 L 32 179.5 Q 36.9 205.1 53.5 219 L 57 221.5 Q 36.4 230.4 23 246.5 L 9 267.5 Q 2.3 280.3 0.5 298 L 0 0 Z M 256 74 L 255 75 L 245 75 L 230 79 Q 217 84 208 92 Q 198 100 191 112 L 184 128 L 181 143 L 181 156 L 182 157 L 183 168 Q 187 183 196 195 L 213 211 Q 195 218 182 229 Q 161 246 149 271 L 140 299 L 139 320 L 138 321 L 138 384 L 139 385 L 139 394 Q 142 408 150 418 Q 158 429 173 434 L 183 437 L 192 437 L 193 438 L 320 438 L 321 437 L 330 437 L 340 434 L 354 426 Q 365 418 370 404 L 373 394 L 373 385 L 374 384 L 374 321 L 373 320 L 372 299 Q 365 266 347 246 Q 329 222 299 211 L 302 209 Q 315 199 323 184 L 329 168 L 330 157 L 331 156 L 331 143 L 328 128 Q 323 112 313 101 Q 303 88 288 81 L 273 76 L 256 74 Z " /><path fill="rgb(0,0,0)" stroke="rgb(0,0,0)" stroke-width="1" opacity="0" d="M 250.5 96 L 261.5 96 L 276.5 100 Q 290.4 106.1 299 117.5 L 308 136.5 L 309 141.5 L 309 156.5 Q 304.8 179.3 289.5 191 L 269.5 201 L 265.5 202 L 246.5 202 Q 225.2 197.3 214 182.5 L 205 165.5 L 203 156.5 L 203 141.5 Q 207.6 118.6 223.5 107 L 235.5 100 L 250.5 96 Z " /><path fill="rgb(0,0,0)" stroke="rgb(0,0,0)" stroke-width="1" opacity="0" d="M 91.5 128 Q 118 128 129 143.5 L 137 158.5 Q 139.7 166.8 138 179.5 Q 133.9 196.4 121.5 205 L 107.5 212 L 89.5 213 Q 71.3 209.3 62 196.5 Q 56.3 189.7 54 179.5 L 54 162.5 Q 57.9 145.9 69.5 137 L 77.5 132 L 91.5 128 Z " /><path fill="rgb(0,0,0)" stroke="rgb(0,0,0)" stroke-width="1" opacity="0" d="M 411.5 128 Q 438 128 449 143.5 L 457 158.5 Q 459.7 166.8 458 179.5 Q 453.9 196.4 441.5 205 L 427.5 212 L 409.5 213 Q 391.3 209.3 382 196.5 Q 376.3 189.7 374 179.5 L 374 162.5 Q 377.9 145.9 389.5 137 L 397.5 132 L 411.5 128 Z " /><path fill="rgb(0,0,0)" stroke="rgb(0,0,0)" stroke-width="1" opacity="0" d="M 248.5 224 L 271.5 225 L 292.5 231 Q 314.5 240.5 329 257.5 Q 345.5 275.5 351 304.5 Q 349.2 310.8 352 312.5 L 352 387.5 L 350 395.5 L 343 407 L 331.5 414 L 323.5 416 L 188.5 416 L 180.5 414 L 169 407 L 162 395.5 L 160 387.5 L 160 312.5 L 164 291.5 L 173 271.5 Q 181.4 257.4 193.5 247 Q 204.6 237.1 219.5 231 L 235.5 226 L 247.5 225 L 248.5 224 Z " /><path fill="rgb(0,0,0)" stroke="rgb(0,0,0)" stroke-width="1" opacity="0.6509803921568628" d="M 244.5 75 L 247 75.5 L 244.5 76 L 244.5 75 Z " /><path fill="rgb(0,0,0)" stroke="rgb(0,0,0)" stroke-width="1" opacity="0.6509803921568628" d="M 265.5 75 L 268 75.5 L 265.5 76 L 265.5 75 Z " /><path fill="rgb(0,0,0)" stroke="rgb(0,0,0)" stroke-width="1" opacity="0.6509803921568628" d="M 220.5 83 L 219.5 85 L 220.5 83 Z " /><path fill="rgb(0,0,0)" stroke="rgb(0,0,0)" stroke-width="1" opacity="0.6509803921568628" d="M 291.5 83 L 292.5 85 L 291.5 83 Z " /><path fill="rgb(0,0,0)" stroke="rgb(0,0,0)" stroke-width="1" opacity="0.6509803921568628" d="M 215.5 86 L 214.5 88 L 215.5 86 Z " /><path fill="rgb(0,0,0)" stroke="rgb(0,0,0)" stroke-width="1" opacity="0.6509803921568628" d="M 296.5 86 L 297.5 88 L 296.5 86 Z " /><path fill="rgb(0,0,0)" stroke="rgb(0,0,0)" stroke-width="1" opacity="0.6509803921568628" d="M 211.5 89 L 210.5 91 L 211.5 89 Z " /><path fill="rgb(0,0,0)" stroke="rgb(0,0,0)" stroke-width="1" opacity="0.6509803921568628" d="M 300.5 89 L 301.5 91 L 300.5 89 Z " /><path fill="rgb(0,0,0)" stroke="rgb(0,0,0)" stroke-width="1" opacity="0.6509803921568628" d="M 207.5 92 L 199.5 101 L 207.5 92 Z " /><path fill="rgb(0,0,0)" stroke="rgb(0,0,0)" stroke-width="1" opacity="0.6509803921568628" d="M 304.5 92 L 312.5 101 L 304.5 92 Z " /><path fill="rgb(0,0,0)" stroke="rgb(0,0,0)" stroke-width="1" opacity="0.6509803921568628" d="M 247.5 96 L 250 96.5 L 247.5 97 L 247.5 96 Z " /><path fill="rgb(0,0,0)" stroke="rgb(0,0,0)" stroke-width="1" opacity="0.6509803921568628" d="M 262.5 96 L 265 96.5 L 262.5 97 L 262.5 96 Z " /><path fill="rgb(0,0,0)" stroke="rgb(0,0,0)" stroke-width="1" opacity="0.6509803921568628" d="M 283.5 103 L 284.5 105 L 283.5 103 Z " /><path fill="rgb(0,0,0)" stroke="rgb(0,0,0)" stroke-width="1" opacity="0.6509803921568628" d="M 196.5 104 L 195.5 106 L 196.5 104 Z " /><path fill="rgb(0,0,0)" stroke="rgb(0,0,0)" stroke-width="1" opacity="0.6509803921568628" d="M 315.5 104 L 316.5 106 L 315.5 104 Z " /><path fill="rgb(0,0,0)" stroke="rgb(0,0,0)" stroke-width="1" opacity="0.6509803921568628" d="M 225.5 105 L 224.5 107 L 225.5 105 Z " /><path fill="rgb(0,0,0)" stroke="rgb(0,0,0)" stroke-width="1" opacity="0.6509803921568628" d="M 286.5 105 L 287.5 107 L 286.5 105 Z " /><path fill="rgb(0,0,0)" stroke="rgb(0,0,0)" stroke-width="1" opacity="0.6509803921568628" d="M 85.5 107 L 88 107.5 L 85.5 108 L 85.5 107 Z " /><path fill="rgb(0,0,0)" stroke="rgb(0,0,0)" stroke-width="1" opacity="0.6509803921568628" d="M 104.5 107 L 107 107.5 L 104.5 108 L 104.5 107 Z " /><path fill="rgb(0,0,0)" stroke="rgb(0,0,0)" stroke-width="1" opacity="0.6509803921568628" d="M 194.5 107 L 193.5 109 L 194.5 107 Z " /><path fill="rgb(0,0,0)" stroke="rgb(0,0,0)" stroke-width="1" opacity="0.6509803921568628" d="M 317.5 107 L 318.5 109 L 317.5 107 Z " /><path fill="rgb(0,0,0)" stroke="rgb(0,0,0)" stroke-width="1" opacity="0.6509803921568628" d="M 405.5 107 L 408 107.5 L 405.5 108 L 405.5 107 Z " /><path fill="rgb(0,0,0)" stroke="rgb(0,0,0)" stroke-width="1" opacity="0.6509803921568628" d="M 424.5 107 L 427 107.5 L 424.5 108 L 424.5 107 Z " /><path fill="rgb(0,0,0)" stroke="rgb(0,0,0)" stroke-width="1" opacity="0.6509803921568628" d="M 221.5 108 L 214.5 116 L 221.5 108 Z " /><path fill="rgb(0,0,0)" stroke="rgb(0,0,0)" stroke-width="1" opacity="0.6509803921568628" d="M 290.5 108 L 297.5 116 L 290.5 108 Z " /><path fill="rgb(0,0,0)" stroke="rgb(0,0,0)" stroke-width="1" opacity="0.6509803921568628" d="M 192.5 110 L 191.5 112 L 192.5 110 Z " /><path fill="rgb(0,0,0)" stroke="rgb(0,0,0)" stroke-width="1" opacity="0.6509803921568628" d="M 63.5 115 L 62.5 117 L 63.5 115 Z " /><path fill="rgb(0,0,0)" stroke="rgb(0,0,0)" stroke-width="1" opacity="0.6509803921568628" d="M 128.5 115 L 129.5 117 L 128.5 115 Z " /><path fill="rgb(0,0,0)" stroke="rgb(0,0,0)" stroke-width="1" opacity="0.6509803921568628" d="M 383.5 115 L 382.5 117 L 383.5 115 Z " /><path fill="rgb(0,0,0)" stroke="rgb(0,0,0)" stroke-width="1" opacity="0.6509803921568628" d="M 448.5 115 L 449.5 117 L 448.5 115 Z " /><path fill="rgb(0,0,0)" stroke="rgb(0,0,0)" stroke-width="1" opacity="0.6509803921568628" d="M 60.5 117 L 59.5 119 L 60.5 117 Z " /><path fill="rgb(0,0,0)" stroke="rgb(0,0,0)" stroke-width="1" opacity="0.6509803921568628" d="M 131.5 117 L 132.5 119 L 131.5 117 Z " /><path fill="rgb(0,0,0)" stroke="rgb(0,0,0)" stroke-width="1" opacity="0.6509803921568628" d="M 380.5 117 L 379.5 119 L 380.5 117 Z " /><path fill="rgb(0,0,0)" stroke="rgb(0,0,0)" stroke-width="1" opacity="0.6509803921568628" d="M 451.5 117 L 452.5 119 L 451.5 117 Z " /><path fill="rgb(0,0,0)" stroke="rgb(0,0,0)" stroke-width="1" opacity="0.6509803921568628" d="M 212.5 118 L 211.5 120 L 212.5 118 Z " /><path fill="rgb(0,0,0)" stroke="rgb(0,0,0)" stroke-width="1" opacity="0.6509803921568628" d="M 299.5 118 L 300.5 120 L 299.5 118 Z " /><path fill="rgb(0,0,0)" stroke="rgb(0,0,0)" stroke-width="1" opacity="0.6509803921568628" d="M 134.5 119 L 136.5 122 L 134.5 119 Z " /><path fill="rgb(0,0,0)" stroke="rgb(0,0,0)" stroke-width="1" opacity="0.6509803921568628" d="M 454.5 119 L 456.5 122 L 454.5 119 Z " /><path fill="rgb(0,0,0)" stroke="rgb(0,0,0)" stroke-width="1" opacity="0.6509803921568628" d="M 56.5 120 L 55.5 122 L 56.5 120 Z " /><path fill="rgb(0,0,0)" stroke="rgb(0,0,0)" stroke-width="1" opacity="0.6509803921568628" d="M 376.5 120 L 375.5 122 L 376.5 120 Z " /><path fill="rgb(0,0,0)" stroke="rgb(0,0,0)" stroke-width="1" opacity="0.6509803921568628" d="M 88.5 128 L 91 128.5 L 88.5 129 L 88.5 128 Z " /><path fill="rgb(0,0,0)" stroke="rgb(0,0,0)" stroke-width="1" opacity="0.6509803921568628" d="M 101.5 128 L 104 128.5 L 101.5 129 L 101.5 128 Z " /><path fill="rgb(0,0,0)" stroke="rgb(0,0,0)" stroke-width="1" opacity="0.6509803921568628" d="M 408.5 128 L 411 128.5 L 408.5 129 L 408.5 128 Z " /><path fill="rgb(0,0,0)" stroke="rgb(0,0,0)" stroke-width="1" opacity="0.6509803921568628" d="M 421.5 128 L 424 128.5 L 421.5 129 L 421.5 128 Z " /><path fill="rgb(0,0,0)" stroke="rgb(0,0,0)" stroke-width="1" opacity="0.6509803921568628" d="M 46.5 130 L 45.5 132 L 46.5 130 Z " /><path fill="rgb(0,0,0)" stroke="rgb(0,0,0)" stroke-width="1" opacity="0.6509803921568628" d="M 145.5 130 L 146.5 132 L 145.5 130 Z " /><path fill="rgb(0,0,0)" stroke="rgb(0,0,0)" stroke-width="1" opacity="0.6509803921568628" d="M 366.5 130 L 365.5 132 L 366.5 130 Z " /><path fill="rgb(0,0,0)" stroke="rgb(0,0,0)" stroke-width="1" opacity="0.6509803921568628" d="M 465.5 130 L 466.5 132 L 465.5 130 Z " /><path fill="rgb(0,0,0)" stroke="rgb(0,0,0)" stroke-width="1" opacity="0.6509803921568628" d="M 43.5 134 L 42.5 136 L 43.5 134 Z " /><path fill="rgb(0,0,0)" stroke="rgb(0,0,0)" stroke-width="1" opacity="0.6509803921568628" d="M 148.5 134 L 149.5 136 L 148.5 134 Z " /><path fill="rgb(0,0,0)" stroke="rgb(0,0,0)" stroke-width="1" opacity="0.6509803921568628" d="M 363.5 134 L 362.5 136 L 363.5 134 Z " /><path fill="rgb(0,0,0)" stroke="rgb(0,0,0)" stroke-width="1" opacity="0.6509803921568628" d="M 468.5 134 L 469.5 136 L 468.5 134 Z " /><path fill="rgb(0,0,0)" stroke="rgb(0,0,0)" stroke-width="1" opacity="0.6509803921568628" d="M 71.5 135 L 70.5 137 L 71.5 135 Z " /><path fill="rgb(0,0,0)" stroke="rgb(0,0,0)" stroke-width="1" opacity="0.6509803921568628" d="M 120.5 135 L 121.5 137 L 120.5 135 Z " /><path fill="rgb(0,0,0)" stroke="rgb(0,0,0)" stroke-width="1" opacity="0.6509803921568628" d="M 182.5 135 L 183 137.5 L 182 137.5 L 182.5 135 Z " /><path fill="rgb(0,0,0)" stroke="rgb(0,0,0)" stroke-width="1" opacity="0.6509803921568628" d="M 329.5 135 L 330 137.5 L 329 137.5 L 329.5 135 Z " /><path fill="rgb(0,0,0)" stroke="rgb(0,0,0)" stroke-width="1" opacity="0.6509803921568628" d="M 391.5 135 L 390.5 137 L 391.5 135 Z " /><path fill="rgb(0,0,0)" stroke="rgb(0,0,0)" stroke-width="1" opacity="0.6509803921568628" d="M 440.5 135 L 441.5 137 L 440.5 135 Z " /><path fill="rgb(0,0,0)" stroke="rgb(0,0,0)" stroke-width="1" opacity="0.6509803921568628" d="M 203.5 138 L 204 140.5 L 203 140.5 L 203.5 138 Z " /><path fill="rgb(0,0,0)" stroke="rgb(0,0,0)" stroke-width="1" opacity="0.6509803921568628" d="M 308.5 138 L 309 140.5 L 308 140.5 L 308.5 138 Z " /><path fill="rgb(0,0,0)" stroke="rgb(0,0,0)" stroke-width="1" opacity="0.6509803921568628" d="M 125.5 139 L 126.5 141 L 125.5 139 Z " /><path fill="rgb(0,0,0)" stroke="rgb(0,0,0)" stroke-width="1" opacity="0.6509803921568628" d="M 445.5 139 L 446.5 141 L 445.5 139 Z " /><path fill="rgb(0,0,0)" stroke="rgb(0,0,0)" stroke-width="1" opacity="0.6509803921568628" d="M 181.5 142 L 182 155.5 L 181 155.5 L 181.5 142 Z " /><path fill="rgb(0,0,0)" stroke="rgb(0,0,0)" stroke-width="1" opacity="0.6509803921568628" d="M 330.5 142 L 331 155.5 L 330 155.5 L 330.5 142 Z " /><path fill="rgb(0,0,0)" stroke="rgb(0,0,0)" stroke-width="1" opacity="0.6509803921568628" d="M 62.5 144 L 61.5 146 L 62.5 144 Z " /><path fill="rgb(0,0,0)" stroke="rgb(0,0,0)" stroke-width="1" opacity="0.6509803921568628" d="M 129.5 144 L 130.5 146 L 129.5 144 Z " /><path fill="rgb(0,0,0)" stroke="rgb(0,0,0)" stroke-width="1" opacity="0.6509803921568628" d="M 382.5 144 L 381.5 146 L 382.5 144 Z " /><path fill="rgb(0,0,0)" stroke="rgb(0,0,0)" stroke-width="1" opacity="0.6509803921568628" d="M 449.5 144 L 450.5 146 L 449.5 144 Z " /><path fill="rgb(0,0,0)" stroke="rgb(0,0,0)" stroke-width="1" opacity="0.6509803921568628" d="M 202.5 146 L 203 151.5 L 202 151.5 L 202.5 146 Z " /><path fill="rgb(0,0,0)" stroke="rgb(0,0,0)" stroke-width="1" opacity="0.6509803921568628" d="M 309.5 146 L 310 151.5 L 309 151.5 L 309.5 146 Z " /><path fill="rgb(0,0,0)" stroke="rgb(0,0,0)" stroke-width="1" opacity="0.6509803921568628" d="M 203.5 157 L 204 159.5 L 203 159.5 L 203.5 157 Z " /><path fill="rgb(0,0,0)" stroke="rgb(0,0,0)" stroke-width="1" opacity="0.6509803921568628" d="M 308.5 157 L 309 159.5 L 308 159.5 L 308.5 157 Z " /><path fill="rgb(0,0,0)" stroke="rgb(0,0,0)" stroke-width="1" opacity="0.6509803921568628" d="M 182.5 160 L 183 162.5 L 182 162.5 L 182.5 160 Z " /><path fill="rgb(0,0,0)" stroke="rgb(0,0,0)" stroke-width="1" opacity="0.6509803921568628" d="M 329.5 160 L 330 162.5 L 329 162.5 L 329.5 160 Z " /><path fill="rgb(0,0,0)" stroke="rgb(0,0,0)" stroke-width="1" opacity="0.6509803921568628" d="M 32.5 161 L 33 165.5 L 32 165.5 L 32.5 161 Z " /><path fill="rgb(0,0,0)" stroke="rgb(0,0,0)" stroke-width="1" opacity="0.6509803921568628" d="M 352.5 161 L 353 165.5 L 352 165.5 L 352.5 161 Z " /><path fill="rgb(0,0,0)" stroke="rgb(0,0,0)" stroke-width="1" opacity="0.6509803921568628" d="M 159.5 162 L 160 165.5 L 159 165.5 L 159.5 162 Z " /><path fill="rgb(0,0,0)" stroke="rgb(0,0,0)" stroke-width="1" opacity="0.6509803921568628" d="M 479.5 162 L 480 165.5 L 479 165.5 L 479.5 162 Z " /><path fill="rgb(0,0,0)" stroke="rgb(0,0,0)" stroke-width="1" opacity="0.6509803921568628" d="M 53.5 165 L 54 176.5 L 53 176.5 L 53.5 165 Z " /><path fill="rgb(0,0,0)" stroke="rgb(0,0,0)" stroke-width="1" opacity="0.6509803921568628" d="M 138.5 165 L 139 176.5 L 138 176.5 L 138.5 165 Z " /><path fill="rgb(0,0,0)" stroke="rgb(0,0,0)" stroke-width="1" opacity="0.6509803921568628" d="M 373.5 165 L 374 176.5 L 373 176.5 L 373.5 165 Z " /><path fill="rgb(0,0,0)" stroke="rgb(0,0,0)" stroke-width="1" opacity="0.6509803921568628" d="M 458.5 165 L 459 176.5 L 458 176.5 L 458.5 165 Z " /><path fill="rgb(0,0,0)" stroke="rgb(0,0,0)" stroke-width="1" opacity="0.6509803921568628" d="M 32.5 175 L 33 179.5 L 32 179.5 L 32.5 175 Z " /><path fill="rgb(0,0,0)" stroke="rgb(0,0,0)" stroke-width="1" opacity="0.6509803921568628" d="M 159.5 175 L 160 179.5 L 159 179.5 L 159.5 175 Z " /><path fill="rgb(0,0,0)" stroke="rgb(0,0,0)" stroke-width="1" opacity="0.6509803921568628" d="M 352.5 175 L 353 179.5 L 352 179.5 L 352.5 175 Z " /><path fill="rgb(0,0,0)" stroke="rgb(0,0,0)" stroke-width="1" opacity="0.6509803921568628" d="M 479.5 175 L 480 179.5 L 479 179.5 L 479.5 175 Z " /><path fill="rgb(0,0,0)" stroke="rgb(0,0,0)" stroke-width="1" opacity="0.6509803921568628" d="M 210.5 177 L 211.5 179 L 210.5 177 Z " /><path fill="rgb(0,0,0)" stroke="rgb(0,0,0)" stroke-width="1" opacity="0.6509803921568628" d="M 301.5 177 L 300.5 179 L 301.5 177 Z " /><path fill="rgb(0,0,0)" stroke="rgb(0,0,0)" stroke-width="1" opacity="0.6509803921568628" d="M 212.5 180 L 213.5 182 L 212.5 180 Z " /><path fill="rgb(0,0,0)" stroke="rgb(0,0,0)" stroke-width="1" opacity="0.6509803921568628" d="M 299.5 180 L 298.5 182 L 299.5 180 Z " /><path fill="rgb(0,0,0)" stroke="rgb(0,0,0)" stroke-width="1" opacity="0.6509803921568628" d="M 189.5 183 L 190.5 185 L 189.5 183 Z " /><path fill="rgb(0,0,0)" stroke="rgb(0,0,0)" stroke-width="1" opacity="0.6509803921568628" d="M 322.5 183 L 321.5 185 L 322.5 183 Z " /><path fill="rgb(0,0,0)" stroke="rgb(0,0,0)" stroke-width="1" opacity="0.6509803921568628" d="M 217.5 186 L 218.5 188 L 217.5 186 Z " /><path fill="rgb(0,0,0)" stroke="rgb(0,0,0)" stroke-width="1" opacity="0.6509803921568628" d="M 294.5 186 L 293.5 188 L 294.5 186 Z " /><path fill="rgb(0,0,0)" stroke="rgb(0,0,0)" stroke-width="1" opacity="0.6509803921568628" d="M 58.5 191 L 59.5 193 L 58.5 191 Z " /><path fill="rgb(0,0,0)" stroke="rgb(0,0,0)" stroke-width="1" opacity="0.6509803921568628" d="M 133.5 191 L 132.5 193 L 133.5 191 Z " /><path fill="rgb(0,0,0)" stroke="rgb(0,0,0)" stroke-width="1" opacity="0.6509803921568628" d="M 194.5 191 L 195.5 193 L 194.5 191 Z " /><path fill="rgb(0,0,0)" stroke="rgb(0,0,0)" stroke-width="1" opacity="0.6509803921568628" d="M 223.5 191 L 224.5 193 L 223.5 191 Z " /><path fill="rgb(0,0,0)" stroke="rgb(0,0,0)" stroke-width="1" opacity="0.6509803921568628" d="M 288.5 191 L 287.5 193 L 288.5 191 Z " /><path fill="rgb(0,0,0)" stroke="rgb(0,0,0)" stroke-width="1" opacity="0.6509803921568628" d="M 317.5 191 L 316.5 193 L 317.5 191 Z " /><path fill="rgb(0,0,0)" stroke="rgb(0,0,0)" stroke-width="1" opacity="0.6509803921568628" d="M 378.5 191 L 379.5 193 L 378.5 191 Z " /><path fill="rgb(0,0,0)" stroke="rgb(0,0,0)" stroke-width="1" opacity="0.6509803921568628" d="M 453.5 191 L 452.5 193 L 453.5 191 Z " /><path fill="rgb(0,0,0)" stroke="rgb(0,0,0)" stroke-width="1" opacity="0.6509803921568628" d="M 60.5 194 L 61.5 196 L 60.5 194 Z " /><path fill="rgb(0,0,0)" stroke="rgb(0,0,0)" stroke-width="1" opacity="0.6509803921568628" d="M 131.5 194 L 130.5 196 L 131.5 194 Z " /><path fill="rgb(0,0,0)" stroke="rgb(0,0,0)" stroke-width="1" opacity="0.6509803921568628" d="M 196.5 194 L 198.5 197 L 196.5 194 Z " /><path fill="rgb(0,0,0)" stroke="rgb(0,0,0)" stroke-width="1" opacity="0.6509803921568628" d="M 315.5 194 L 313.5 197 L 315.5 194 Z " /><path fill="rgb(0,0,0)" stroke="rgb(0,0,0)" stroke-width="1" opacity="0.6509803921568628" d="M 380.5 194 L 381.5 196 L 380.5 194 Z " /><path fill="rgb(0,0,0)" stroke="rgb(0,0,0)" stroke-width="1" opacity="0.6509803921568628" d="M 451.5 194 L 450.5 196 L 451.5 194 Z " /><path fill="rgb(0,0,0)" stroke="rgb(0,0,0)" stroke-width="1" opacity="0.6509803921568628" d="M 63.5 198 L 68.5 204 L 63.5 198 Z " /><path fill="rgb(0,0,0)" stroke="rgb(0,0,0)" stroke-width="1" opacity="0.6509803921568628" d="M 128.5 198 L 123.5 204 L 128.5 198 Z " /><path fill="rgb(0,0,0)" stroke="rgb(0,0,0)" stroke-width="1" opacity="0.6509803921568628" d="M 383.5 198 L 388.5 204 L 383.5 198 Z " /><path fill="rgb(0,0,0)" stroke="rgb(0,0,0)" stroke-width="1" opacity="0.6509803921568628" d="M 448.5 198 L 443.5 204 L 448.5 198 Z " /><path fill="rgb(0,0,0)" stroke="rgb(0,0,0)" stroke-width="1" opacity="0.6509803921568628" d="M 151.5 202 L 150.5 204 L 151.5 202 Z " /><path fill="rgb(0,0,0)" stroke="rgb(0,0,0)" stroke-width="1" opacity="0.6509803921568628" d="M 249.5 202 L 263 202.5 L 249.5 203 L 249.5 202 Z " /><path fill="rgb(0,0,0)" stroke="rgb(0,0,0)" stroke-width="1" opacity="0.6509803921568628" d="M 471.5 202 L 470.5 204 L 471.5 202 Z " /><path fill="rgb(0,0,0)" stroke="rgb(0,0,0)" stroke-width="1" opacity="0.6509803921568628" d="M 71.5 205 L 72.5 207 L 71.5 205 Z " /><path fill="rgb(0,0,0)" stroke="rgb(0,0,0)" stroke-width="1" opacity="0.6509803921568628" d="M 120.5 205 L 119.5 207 L 120.5 205 Z " /><path fill="rgb(0,0,0)" stroke="rgb(0,0,0)" stroke-width="1" opacity="0.6509803921568628" d="M 391.5 205 L 392.5 207 L 391.5 205 Z " /><path fill="rgb(0,0,0)" stroke="rgb(0,0,0)" stroke-width="1" opacity="0.6509803921568628" d="M 440.5 205 L 439.5 207 L 440.5 205 Z " /><path fill="rgb(0,0,0)" stroke="rgb(0,0,0)" stroke-width="1" opacity="0.6509803921568628" d="M 208.5 206 L 210.5 209 L 208.5 206 Z " /><path fill="rgb(0,0,0)" stroke="rgb(0,0,0)" stroke-width="1" opacity="0.6509803921568628" d="M 303.5 206 L 301.5 209 L 303.5 206 Z " /><path fill="rgb(0,0,0)" stroke="rgb(0,0,0)" stroke-width="1" opacity="0.6509803921568628" d="M 44.5 208 L 45.5 210 L 44.5 208 Z " /><path fill="rgb(0,0,0)" stroke="rgb(0,0,0)" stroke-width="1" opacity="0.6509803921568628" d="M 147.5 208 L 146.5 210 L 147.5 208 Z " /><path fill="rgb(0,0,0)" stroke="rgb(0,0,0)" stroke-width="1" opacity="0.6509803921568628" d="M 364.5 208 L 365.5 210 L 364.5 208 Z " /><path fill="rgb(0,0,0)" stroke="rgb(0,0,0)" stroke-width="1" opacity="0.6509803921568628" d="M 467.5 208 L 466.5 210 L 467.5 208 Z " /><path fill="rgb(0,0,0)" stroke="rgb(0,0,0)" stroke-width="1" opacity="0.6509803921568628" d="M 213.5 210 L 212.5 212 L 211 211.5 L 213.5 210 Z " /><path fill="rgb(0,0,0)" stroke="rgb(0,0,0)" stroke-width="1" opacity="0.6509803921568628" d="M 86.5 212 L 89 212.5 L 86.5 213 L 86.5 212 Z " /><path fill="rgb(0,0,0)" stroke="rgb(0,0,0)" stroke-width="1" opacity="0.6509803921568628" d="M 103.5 212 L 106 212.5 L 103.5 213 L 103.5 212 Z " /><path fill="rgb(0,0,0)" stroke="rgb(0,0,0)" stroke-width="1" opacity="0.6509803921568628" d="M 406.5 212 L 409 212.5 L 406.5 213 L 406.5 212 Z " /><path fill="rgb(0,0,0)" stroke="rgb(0,0,0)" stroke-width="1" opacity="0.6509803921568628" d="M 423.5 212 L 426 212.5 L 423.5 213 L 423.5 212 Z " /><path fill="rgb(0,0,0)" stroke="rgb(0,0,0)" stroke-width="1" opacity="0.6509803921568628" d="M 48.5 213 L 53.5 219 L 48.5 213 Z " /><path fill="rgb(0,0,0)" stroke="rgb(0,0,0)" stroke-width="1" opacity="0.6509803921568628" d="M 93.5 213 L 99 213.5 L 93.5 214 L 93.5 213 Z " /><path fill="rgb(0,0,0)" stroke="rgb(0,0,0)" stroke-width="1" opacity="0.6509803921568628" d="M 143.5 213 L 138.5 219 L 143.5 213 Z " /><path fill="rgb(0,0,0)" stroke="rgb(0,0,0)" stroke-width="1" opacity="0.6509803921568628" d="M 368.5 213 L 373.5 219 L 368.5 213 Z " /><path fill="rgb(0,0,0)" stroke="rgb(0,0,0)" stroke-width="1" opacity="0.6509803921568628" d="M 413.5 213 L 419 213.5 L 413.5 214 L 413.5 213 Z " /><path fill="rgb(0,0,0)" stroke="rgb(0,0,0)" stroke-width="1" opacity="0.6509803921568628" d="M 463.5 213 L 458.5 219 L 463.5 213 Z " /><path fill="rgb(0,0,0)" stroke="rgb(0,0,0)" stroke-width="1" opacity="0.6509803921568628" d="M 316.5 219 L 317.5 221 L 316.5 219 Z " /><path fill="rgb(0,0,0)" stroke="rgb(0,0,0)" stroke-width="1" opacity="0.6509803921568628" d="M 192.5 221 L 191.5 223 L 192.5 221 Z " /><path fill="rgb(0,0,0)" stroke="rgb(0,0,0)" stroke-width="1" opacity="0.6509803921568628" d="M 319.5 221 L 320.5 223 L 319.5 221 Z " /><path fill="rgb(0,0,0)" stroke="rgb(0,0,0)" stroke-width="1" opacity="0.6509803921568628" d="M 189.5 223 L 188.5 225 L 189.5 223 Z " /><path fill="rgb(0,0,0)" stroke="rgb(0,0,0)" stroke-width="1" opacity="0.6509803921568628" d="M 322.5 223 L 323.5 225 L 322.5 223 Z " /><path fill="rgb(0,0,0)" stroke="rgb(0,0,0)" stroke-width="1" opacity="0.6509803921568628" d="M 140.5 224 L 143.5 228 L 140.5 224 Z " /><path fill="rgb(0,0,0)" stroke="rgb(0,0,0)" stroke-width="1" opacity="0.6509803921568628" d="M 244.5 224 L 248 224.5 L 244.5 225 L 244.5 224 Z " /><path fill="rgb(0,0,0)" stroke="rgb(0,0,0)" stroke-width="1" opacity="0.6509803921568628" d="M 264.5 224 L 268 224.5 L 264.5 225 L 264.5 224 Z " /><path fill="rgb(0,0,0)" stroke="rgb(0,0,0)" stroke-width="1" opacity="0.6509803921568628" d="M 371.5 224 L 368.5 228 L 371.5 224 Z " /><path fill="rgb(0,0,0)" stroke="rgb(0,0,0)" stroke-width="1" opacity="0.6509803921568628" d="M 186.5 225 L 184.5 228 L 186.5 225 Z " /><path fill="rgb(0,0,0)" stroke="rgb(0,0,0)" stroke-width="1" opacity="0.6509803921568628" d="M 237.5 225 L 240 225.5 L 237.5 226 L 237.5 225 Z " /><path fill="rgb(0,0,0)" stroke="rgb(0,0,0)" stroke-width="1" opacity="0.6509803921568628" d="M 272.5 225 L 275 225.5 L 272.5 226 L 272.5 225 Z " /><path fill="rgb(0,0,0)" stroke="rgb(0,0,0)" stroke-width="1" opacity="0.6509803921568628" d="M 325.5 225 L 327.5 228 L 325.5 225 Z " /><path fill="rgb(0,0,0)" stroke="rgb(0,0,0)" stroke-width="1" opacity="0.6509803921568628" d="M 47.5 226 L 46.5 228 L 47.5 226 Z " /><path fill="rgb(0,0,0)" stroke="rgb(0,0,0)" stroke-width="1" opacity="0.6509803921568628" d="M 464.5 226 L 465.5 228 L 464.5 226 Z " /><path fill="rgb(0,0,0)" stroke="rgb(0,0,0)" stroke-width="1" opacity="0.6509803921568628" d="M 181.5 229 L 178.5 233 L 181.5 229 Z " /><path fill="rgb(0,0,0)" stroke="rgb(0,0,0)" stroke-width="1" opacity="0.6509803921568628" d="M 330.5 229 L 332.5 232 L 330.5 229 Z " /><path fill="rgb(0,0,0)" stroke="rgb(0,0,0)" stroke-width="1" opacity="0.6509803921568628" d="M 38.5 232 L 36.5 235 L 38.5 232 Z " /><path fill="rgb(0,0,0)" stroke="rgb(0,0,0)" stroke-width="1" opacity="0.6509803921568628" d="M 473.5 232 L 475.5 235 L 473.5 232 Z " /><path fill="rgb(0,0,0)" stroke="rgb(0,0,0)" stroke-width="1" opacity="0.6509803921568628" d="M 91.5 234 L 101 234.5 L 91.5 235 L 91.5 234 Z " /><path fill="rgb(0,0,0)" stroke="rgb(0,0,0)" stroke-width="1" opacity="0.6509803921568628" d="M 411.5 234 L 421 234.5 L 411.5 235 L 411.5 234 Z " /><path fill="rgb(0,0,0)" stroke="rgb(0,0,0)" stroke-width="1" opacity="0.6509803921568628" d="M 83.5 235 L 86 235.5 L 83.5 236 L 83.5 235 Z " /><path fill="rgb(0,0,0)" stroke="rgb(0,0,0)" stroke-width="1" opacity="0.6509803921568628" d="M 106.5 235 L 109 235.5 L 106.5 236 L 106.5 235 Z " /><path fill="rgb(0,0,0)" stroke="rgb(0,0,0)" stroke-width="1" opacity="0.6509803921568628" d="M 403.5 235 L 406 235.5 L 403.5 236 L 403.5 235 Z " /><path fill="rgb(0,0,0)" stroke="rgb(0,0,0)" stroke-width="1" opacity="0.6509803921568628" d="M 426.5 235 L 429 235.5 L 426.5 236 L 426.5 235 Z " /><path fill="rgb(0,0,0)" stroke="rgb(0,0,0)" stroke-width="1" opacity="0.6509803921568628" d="M 33.5 236 L 23.5 247 L 33.5 236 Z " /><path fill="rgb(0,0,0)" stroke="rgb(0,0,0)" stroke-width="1" opacity="0.6509803921568628" d="M 478.5 236 L 488.5 247 L 478.5 236 Z " /><path fill="rgb(0,0,0)" stroke="rgb(0,0,0)" stroke-width="1" opacity="0.6509803921568628" d="M 206.5 237 L 205.5 239 L 206.5 237 Z " /><path fill="rgb(0,0,0)" stroke="rgb(0,0,0)" stroke-width="1" opacity="0.6509803921568628" d="M 305.5 237 L 306.5 239 L 305.5 237 Z " /><path fill="rgb(0,0,0)" stroke="rgb(0,0,0)" stroke-width="1" opacity="0.6509803921568628" d="M 308.5 239 L 309.5 241 L 308.5 239 Z " /><path fill="rgb(0,0,0)" stroke="rgb(0,0,0)" stroke-width="1" opacity="0.6509803921568628" d="M 200.5 241 L 199.5 243 L 200.5 241 Z " /><path fill="rgb(0,0,0)" stroke="rgb(0,0,0)" stroke-width="1" opacity="0.6509803921568628" d="M 311.5 241 L 312.5 243 L 311.5 241 Z " /><path fill="rgb(0,0,0)" stroke="rgb(0,0,0)" stroke-width="1" opacity="0.6509803921568628" d="M 167.5 243 L 165.5 246 L 167.5 243 Z " /><path fill="rgb(0,0,0)" stroke="rgb(0,0,0)" stroke-width="1" opacity="0.6509803921568628" d="M 344.5 243 L 346.5 246 L 344.5 243 Z " /><path fill="rgb(0,0,0)" stroke="rgb(0,0,0)" stroke-width="1" opacity="0.6509803921568628" d="M 58.5 244 L 57.5 246 L 58.5 244 Z " /><path fill="rgb(0,0,0)" stroke="rgb(0,0,0)" stroke-width="1" opacity="0.6509803921568628" d="M 196.5 244 L 194.5 247 L 196.5 244 Z " /><path fill="rgb(0,0,0)" stroke="rgb(0,0,0)" stroke-width="1" opacity="0.6509803921568628" d="M 315.5 244 L 317.5 247 L 315.5 244 Z " /><path fill="rgb(0,0,0)" stroke="rgb(0,0,0)" stroke-width="1" opacity="0.6509803921568628" d="M 453.5 244 L 454.5 246 L 453.5 244 Z " /><path fill="rgb(0,0,0)" stroke="rgb(0,0,0)" stroke-width="1" opacity="0.6509803921568628" d="M 52.5 248 L 51.5 250 L 52.5 248 Z " /><path fill="rgb(0,0,0)" stroke="rgb(0,0,0)" stroke-width="1" opacity="0.6509803921568628" d="M 459.5 248 L 460.5 250 L 459.5 248 Z " /><path fill="rgb(0,0,0)" stroke="rgb(0,0,0)" stroke-width="1" opacity="0.6509803921568628" d="M 162.5 249 L 161.5 251 L 162.5 249 Z " /><path fill="rgb(0,0,0)" stroke="rgb(0,0,0)" stroke-width="1" opacity="0.6509803921568628" d="M 349.5 249 L 350.5 251 L 349.5 249 Z " /><path fill="rgb(0,0,0)" stroke="rgb(0,0,0)" stroke-width="1" opacity="0.6509803921568628" d="M 20.5 250 L 19.5 252 L 20.5 250 Z " /><path fill="rgb(0,0,0)" stroke="rgb(0,0,0)" stroke-width="1" opacity="0.6509803921568628" d="M 189.5 250 L 186.5 254 L 189.5 250 Z " /><path fill="rgb(0,0,0)" stroke="rgb(0,0,0)" stroke-width="1" opacity="0.6509803921568628" d="M 322.5 250 L 325.5 254 L 322.5 250 Z " /><path fill="rgb(0,0,0)" stroke="rgb(0,0,0)" stroke-width="1" opacity="0.6509803921568628" d="M 491.5 250 L 492.5 252 L 491.5 250 Z " /><path fill="rgb(0,0,0)" stroke="rgb(0,0,0)" stroke-width="1" opacity="0.6509803921568628" d="M 48.5 251 L 44.5 256 L 48.5 251 Z " /><path fill="rgb(0,0,0)" stroke="rgb(0,0,0)" stroke-width="1" opacity="0.6509803921568628" d="M 463.5 251 L 467.5 256 L 463.5 251 Z " /><path fill="rgb(0,0,0)" stroke="rgb(0,0,0)" stroke-width="1" opacity="0.6509803921568628" d="M 160.5 252 L 159.5 254 L 160.5 252 Z " /><path fill="rgb(0,0,0)" stroke="rgb(0,0,0)" stroke-width="1" opacity="0.6509803921568628" d="M 351.5 252 L 352.5 254 L 351.5 252 Z " /><path fill="rgb(0,0,0)" stroke="rgb(0,0,0)" stroke-width="1" opacity="0.6509803921568628" d="M 17.5 254 L 16.5 256 L 17.5 254 Z " /><path fill="rgb(0,0,0)" stroke="rgb(0,0,0)" stroke-width="1" opacity="0.6509803921568628" d="M 494.5 254 L 495.5 256 L 494.5 254 Z " /><path fill="rgb(0,0,0)" stroke="rgb(0,0,0)" stroke-width="1" opacity="0.6509803921568628" d="M 42.5 257 L 38.5 262 L 42.5 257 Z " /><path fill="rgb(0,0,0)" stroke="rgb(0,0,0)" stroke-width="1" opacity="0.6509803921568628" d="M 156.5 258 L 155.5 260 L 156.5 258 Z " /><path fill="rgb(0,0,0)" stroke="rgb(0,0,0)" stroke-width="1" opacity="0.6509803921568628" d="M 182.5 258 L 180.5 261 L 182.5 258 Z " /><path fill="rgb(0,0,0)" stroke="rgb(0,0,0)" stroke-width="1" opacity="0.6509803921568628" d="M 329.5 258 L 331.5 261 L 329.5 258 Z " /><path fill="rgb(0,0,0)" stroke="rgb(0,0,0)" stroke-width="1" opacity="0.6509803921568628" d="M 355.5 258 L 356.5 260 L 355.5 258 Z " /><path fill="rgb(0,0,0)" stroke="rgb(0,0,0)" stroke-width="1" opacity="0.6509803921568628" d="M 470.5 258 L 473.5 262 L 470.5 258 Z " /><path fill="rgb(0,0,0)" stroke="rgb(0,0,0)" stroke-width="1" opacity="0.6509803921568628" d="M 178.5 263 L 177.5 265 L 178.5 263 Z " /><path fill="rgb(0,0,0)" stroke="rgb(0,0,0)" stroke-width="1" opacity="0.6509803921568628" d="M 333.5 263 L 334.5 265 L 333.5 263 Z " /><path fill="rgb(0,0,0)" stroke="rgb(0,0,0)" stroke-width="1" opacity="0.6509803921568628" d="M 475.5 264 L 476.5 266 L 475.5 264 Z " /><path fill="rgb(0,0,0)" stroke="rgb(0,0,0)" stroke-width="1" opacity="0.6509803921568628" d="M 152.5 265 L 151.5 267 L 152.5 265 Z " /><path fill="rgb(0,0,0)" stroke="rgb(0,0,0)" stroke-width="1" opacity="0.6509803921568628" d="M 10.5 266 L 9.5 268 L 10.5 266 Z " /><path fill="rgb(0,0,0)" stroke="rgb(0,0,0)" stroke-width="1" opacity="0.6509803921568628" d="M 176.5 266 L 175.5 268 L 176.5 266 Z " /><path fill="rgb(0,0,0)" stroke="rgb(0,0,0)" stroke-width="1" opacity="0.6509803921568628" d="M 335.5 266 L 336.5 268 L 335.5 266 Z " /><path fill="rgb(0,0,0)" stroke="rgb(0,0,0)" stroke-width="1" opacity="0.6509803921568628" d="M 174.5 269 L 173.5 271 L 174.5 269 Z " /><path fill="rgb(0,0,0)" stroke="rgb(0,0,0)" stroke-width="1" opacity="0.6509803921568628" d="M 337.5 269 L 338.5 271 L 337.5 269 Z " /><path fill="rgb(0,0,0)" stroke="rgb(0,0,0)" stroke-width="1" opacity="0.6509803921568628" d="M 22.5 294 L 23 296.5 L 22 296.5 L 22.5 294 Z " /><path fill="rgb(0,0,0)" stroke="rgb(0,0,0)" stroke-width="1" opacity="0.6509803921568628" d="M 0.5 298 L 1 303.5 L 0 303.5 L 0.5 298 Z " /><path fill="rgb(0,0,0)" stroke="rgb(0,0,0)" stroke-width="1" opacity="0.6509803921568628" d="M 140.5 298 L 141 300.5 L 140 300.5 L 140.5 298 Z " /><path fill="rgb(0,0,0)" stroke="rgb(0,0,0)" stroke-width="1" opacity="0.6509803921568628" d="M 371.5 298 L 372 300.5 L 371 300.5 L 371.5 298 Z " /><path fill="rgb(0,0,0)" stroke="rgb(0,0,0)" stroke-width="1" opacity="0.6509803921568628" d="M 511.5 299 L 512 304.5 L 511 304.5 L 511.5 299 Z " /><path fill="rgb(0,0,0)" stroke="rgb(0,0,0)" stroke-width="1" opacity="0.6509803921568628" d="M 21.5 301 L 22 356.5 L 21 356.5 L 21.5 301 Z " /><path fill="rgb(0,0,0)" stroke="rgb(0,0,0)" stroke-width="1" opacity="0.6509803921568628" d="M 161.5 301 L 162 303.5 L 161 303.5 L 161.5 301 Z " /><path fill="rgb(0,0,0)" stroke="rgb(0,0,0)" stroke-width="1" opacity="0.6509803921568628" d="M 350.5 301 L 351 303.5 L 350 303.5 L 350.5 301 Z " /><path fill="rgb(0,0,0)" stroke="rgb(0,0,0)" stroke-width="1" opacity="0.6509803921568628" d="M 490.5 301 L 491 356.5 L 490 356.5 L 490.5 301 Z " /><path fill="rgb(0,0,0)" stroke="rgb(0,0,0)" stroke-width="1" opacity="0.6509803921568628" d="M 139.5 305 L 140 308.5 L 139 308.5 L 139.5 305 Z " /><path fill="rgb(0,0,0)" stroke="rgb(0,0,0)" stroke-width="1" opacity="0.6509803921568628" d="M 372.5 305 L 373 308.5 L 372 308.5 L 372.5 305 Z " /><path fill="rgb(0,0,0)" stroke="rgb(0,0,0)" stroke-width="1" opacity="0.6509803921568628" d="M 160.5 308 L 161 311.5 L 160 311.5 L 160.5 308 Z " /><path fill="rgb(0,0,0)" stroke="rgb(0,0,0)" stroke-width="1" opacity="0.6509803921568628" d="M 351.5 308 L 352 311.5 L 351 311.5 L 351.5 308 Z " /><path fill="rgb(0,0,0)" stroke="rgb(0,0,0)" stroke-width="1" opacity="0.6509803921568628" d="M 138.5 320 L 139 383.5 L 138 383.5 L 138.5 320 Z " /><path fill="rgb(0,0,0)" stroke="rgb(0,0,0)" stroke-width="1" opacity="0.6509803921568628" d="M 373.5 320 L 374 383.5 L 373 383.5 L 373.5 320 Z " /><path fill="rgb(0,0,0)" stroke="rgb(0,0,0)" stroke-width="1" opacity="0.6509803921568628" d="M 0.5 356 L 1 359.5 L 0 359.5 L 0.5 356 Z " /><path fill="rgb(0,0,0)" stroke="rgb(0,0,0)" stroke-width="1" opacity="0.6509803921568628" d="M 511.5 356 L 512 359.5 L 511 359.5 L 511.5 356 Z " /><path fill="rgb(0,0,0)" stroke="rgb(0,0,0)" stroke-width="1" opacity="0.6509803921568628" d="M 28.5 372 L 32.5 377 L 28.5 372 Z " /><path fill="rgb(0,0,0)" stroke="rgb(0,0,0)" stroke-width="1" opacity="0.6509803921568628" d="M 483.5 372 L 479.5 377 L 483.5 372 Z " /><path fill="rgb(0,0,0)" stroke="rgb(0,0,0)" stroke-width="1" opacity="0.6509803921568628" d="M 9.5 382 L 10.5 384 L 9.5 382 Z " /><path fill="rgb(0,0,0)" stroke="rgb(0,0,0)" stroke-width="1" opacity="0.6509803921568628" d="M 502.5 382 L 500.5 385 L 502.5 382 Z " /><path fill="rgb(0,0,0)" stroke="rgb(0,0,0)" stroke-width="1" opacity="0.6509803921568628" d="M 46.5 383 L 49 383.5 L 46.5 384 L 46.5 383 Z " /><path fill="rgb(0,0,0)" stroke="rgb(0,0,0)" stroke-width="1" opacity="0.6509803921568628" d="M 463.5 383 L 466 383.5 L 463.5 384 L 463.5 383 Z " /><path fill="rgb(0,0,0)" stroke="rgb(0,0,0)" stroke-width="1" opacity="0.6509803921568628" d="M 13.5 387 L 17.5 392 L 13.5 387 Z " /><path fill="rgb(0,0,0)" stroke="rgb(0,0,0)" stroke-width="1" opacity="0.6509803921568628" d="M 498.5 387 L 494.5 392 L 498.5 387 Z " /><path fill="rgb(0,0,0)" stroke="rgb(0,0,0)" stroke-width="1" opacity="0.6509803921568628" d="M 160.5 388 L 161 390.5 L 160 390.5 L 160.5 388 Z " /><path fill="rgb(0,0,0)" stroke="rgb(0,0,0)" stroke-width="1" opacity="0.6509803921568628" d="M 351.5 388 L 352 390.5 L 351 390.5 L 351.5 388 Z " /><path fill="rgb(0,0,0)" stroke="rgb(0,0,0)" stroke-width="1" opacity="0.6509803921568628" d="M 139.5 391 L 140 393.5 L 139 393.5 L 139.5 391 Z " /><path fill="rgb(0,0,0)" stroke="rgb(0,0,0)" stroke-width="1" opacity="0.6509803921568628" d="M 372.5 391 L 373 393.5 L 372 393.5 L 372.5 391 Z " /><path fill="rgb(0,0,0)" stroke="rgb(0,0,0)" stroke-width="1" opacity="0.6509803921568628" d="M 21.5 394 L 22.5 396 L 21.5 394 Z " /><path fill="rgb(0,0,0)" stroke="rgb(0,0,0)" stroke-width="1" opacity="0.6509803921568628" d="M 490.5 394 L 489.5 396 L 490.5 394 Z " /><path fill="rgb(0,0,0)" stroke="rgb(0,0,0)" stroke-width="1" opacity="0.6509803921568628" d="M 24.5 396 L 25.5 398 L 24.5 396 Z " /><path fill="rgb(0,0,0)" stroke="rgb(0,0,0)" stroke-width="1" opacity="0.6509803921568628" d="M 487.5 396 L 486.5 398 L 487.5 396 Z " /><path fill="rgb(0,0,0)" stroke="rgb(0,0,0)" stroke-width="1" opacity="0.6509803921568628" d="M 115.5 401 L 114.5 403 L 115.5 401 Z " /><path fill="rgb(0,0,0)" stroke="rgb(0,0,0)" stroke-width="1" opacity="0.6509803921568628" d="M 396.5 401 L 397.5 403 L 396.5 401 Z " /><path fill="rgb(0,0,0)" stroke="rgb(0,0,0)" stroke-width="1" opacity="0.6509803921568628" d="M 166.5 403 L 168.5 406 L 166.5 403 Z " /><path fill="rgb(0,0,0)" stroke="rgb(0,0,0)" stroke-width="1" opacity="0.6509803921568628" d="M 345.5 403 L 343.5 406 L 345.5 403 Z " /><path fill="rgb(0,0,0)" stroke="rgb(0,0,0)" stroke-width="1" opacity="0.6509803921568628" d="M 43.5 404 L 46 404.5 L 43.5 405 L 43.5 404 Z " /><path fill="rgb(0,0,0)" stroke="rgb(0,0,0)" stroke-width="1" opacity="0.6509803921568628" d="M 466.5 404 L 469 404.5 L 466.5 405 L 466.5 404 Z " /><path fill="rgb(0,0,0)" stroke="rgb(0,0,0)" stroke-width="1" opacity="0.6509803921568628" d="M 53.5 405 L 107 405.5 L 53.5 406 L 53.5 405 Z " /><path fill="rgb(0,0,0)" stroke="rgb(0,0,0)" stroke-width="1" opacity="0.6509803921568628" d="M 405.5 405 L 459 405.5 L 405.5 406 L 405.5 405 Z " /><path fill="rgb(0,0,0)" stroke="rgb(0,0,0)" stroke-width="1" opacity="0.6509803921568628" d="M 170.5 407 L 172.5 410 L 170.5 407 Z " /><path fill="rgb(0,0,0)" stroke="rgb(0,0,0)" stroke-width="1" opacity="0.6509803921568628" d="M 341.5 407 L 339.5 410 L 341.5 407 Z " /><path fill="rgb(0,0,0)" stroke="rgb(0,0,0)" stroke-width="1" opacity="0.6509803921568628" d="M 147.5 413 L 148.5 415 L 147.5 413 Z " /><path fill="rgb(0,0,0)" stroke="rgb(0,0,0)" stroke-width="1" opacity="0.6509803921568628" d="M 364.5 413 L 363.5 415 L 364.5 413 Z " /><path fill="rgb(0,0,0)" stroke="rgb(0,0,0)" stroke-width="1" opacity="0.6509803921568628" d="M 185.5 415 L 188 415.5 L 185.5 416 L 185.5 415 Z " /><path fill="rgb(0,0,0)" stroke="rgb(0,0,0)" stroke-width="1" opacity="0.6509803921568628" d="M 324.5 415 L 327 415.5 L 324.5 416 L 324.5 415 Z " /><path fill="rgb(0,0,0)" stroke="rgb(0,0,0)" stroke-width="1" opacity="0.6509803921568628" d="M 150.5 417 L 158.5 426 L 150.5 417 Z " /><path fill="rgb(0,0,0)" stroke="rgb(0,0,0)" stroke-width="1" opacity="0.6509803921568628" d="M 361.5 417 L 353.5 426 L 361.5 417 Z " /><path fill="rgb(0,0,0)" stroke="rgb(0,0,0)" stroke-width="1" opacity="0.6509803921568628" d="M 161.5 427 L 162.5 429 L 161.5 427 Z " /><path fill="rgb(0,0,0)" stroke="rgb(0,0,0)" stroke-width="1" opacity="0.6509803921568628" d="M 350.5 427 L 349.5 429 L 350.5 427 Z " /><path fill="rgb(0,0,0)" stroke="rgb(0,0,0)" stroke-width="1" opacity="0.6509803921568628" d="M 345.5 430 L 344.5 432 L 343 431.5 L 345.5 430 Z " /><path fill="rgb(0,0,0)" stroke="rgb(0,0,0)" stroke-width="1" opacity="0.6509803921568628" d="M 182.5 436 L 185 436.5 L 182.5 437 L 182.5 436 Z " /><path fill="rgb(0,0,0)" stroke="rgb(0,0,0)" stroke-width="1" opacity="0.6509803921568628" d="M 327.5 436 L 330 436.5 L 327.5 437 L 327.5 436 Z " /><path fill="rgb(0,0,0)" stroke="rgb(0,0,0)" stroke-width="1" opacity="0.6509803921568628" d="M 192.5 437 L 320 437.5 L 192.5 438 L 192.5 437 Z " /></svg>