<svg viewBox="0 0 512 512" version="1.1" xmlns="http://www.w3.org/2000/svg" desc="Created with imagetracer.js version 1.2.6" fill="currentColor"><path fill="rgb(0,0,0)" stroke="rgb(0,0,0)" stroke-width="1" opacity="0.8156862745098039" d="M 246.5 44 L 249 44.5 L 246.5 45 L 246.5 44 Z " /><path fill="rgb(0,0,0)" stroke="rgb(0,0,0)" stroke-width="1" opacity="0.8156862745098039" d="M 263.5 44 L 266 44.5 L 263.5 45 L 263.5 44 Z " /><path fill="rgb(0,0,0)" stroke="rgb(0,0,0)" stroke-width="1" opacity="0.8156862745098039" d="M 204.5 60 L 203.5 62 L 204.5 60 Z " /><path fill="rgb(0,0,0)" stroke="rgb(0,0,0)" stroke-width="1" opacity="0.8156862745098039" d="M 307.5 60 L 308.5 62 L 307.5 60 Z " /><path fill="rgb(0,0,0)" stroke="rgb(0,0,0)" stroke-width="1" opacity="0.8156862745098039" d="M 200.5 63 L 199.5 65 L 200.5 63 Z " /><path fill="rgb(0,0,0)" stroke="rgb(0,0,0)" stroke-width="1" opacity="0.8156862745098039" d="M 311.5 63 L 312.5 65 L 311.5 63 Z " /><path fill="rgb(0,0,0)" stroke="rgb(0,0,0)" stroke-width="1" opacity="0.8156862745098039" d="M 252.5 73 L 260 73.5 L 252.5 74 L 252.5 73 Z " /><path fill="rgb(0,0,0)" stroke="rgb(0,0,0)" stroke-width="1" opacity="0.8156862745098039" d="M 187.5 76 L 186.5 78 L 187.5 76 Z " /><path fill="rgb(0,0,0)" stroke="rgb(0,0,0)" stroke-width="1" opacity="0.8156862745098039" d="M 324.5 76 L 325.5 78 L 324.5 76 Z " /><path fill="rgb(0,0,0)" stroke="rgb(0,0,0)" stroke-width="1" opacity="0.8156862745098039" d="M 184.5 80 L 183.5 82 L 184.5 80 Z " /><path fill="rgb(0,0,0)" stroke="rgb(0,0,0)" stroke-width="1" opacity="0.8156862745098039" d="M 327.5 80 L 328.5 82 L 327.5 80 Z " /><path fill="rgb(0,0,0)" stroke="rgb(0,0,0)" stroke-width="1" opacity="0.8156862745098039" d="M 221.5 84 L 220.5 86 L 221.5 84 Z " /><path fill="rgb(0,0,0)" stroke="rgb(0,0,0)" stroke-width="1" opacity="0.8156862745098039" d="M 290.5 84 L 291.5 86 L 290.5 84 Z " /><path fill="rgb(0,0,0)" stroke="rgb(0,0,0)" stroke-width="1" opacity="0.8156862745098039" d="M 216.5 88 L 212.5 93 L 216.5 88 Z " /><path fill="rgb(0,0,0)" stroke="rgb(0,0,0)" stroke-width="1" opacity="0.8156862745098039" d="M 295.5 88 L 299.5 93 L 295.5 88 Z " /><path fill="rgb(0,0,0)" stroke="rgb(0,0,0)" stroke-width="1" opacity="0.8156862745098039" d="M 167.5 125 L 168 129.5 L 167 129.5 L 167.5 125 Z " /><path fill="rgb(0,0,0)" stroke="rgb(0,0,0)" stroke-width="1" opacity="0.8156862745098039" d="M 344.5 125 L 345 129.5 L 344 129.5 L 344.5 125 Z " /><path fill="rgb(0,0,0)" stroke="rgb(0,0,0)" stroke-width="1" opacity="0.8156862745098039" d="M 167.5 135 L 168 139.5 L 167 139.5 L 167.5 135 Z " /><path fill="rgb(0,0,0)" stroke="rgb(0,0,0)" stroke-width="1" opacity="0.8156862745098039" d="M 344.5 135 L 345 139.5 L 344 139.5 L 344.5 135 Z " /><path fill="rgb(0,0,0)" stroke="rgb(0,0,0)" stroke-width="1" opacity="0.8156862745098039" d="M 140.5 140 L 141.5 142 L 140.5 140 Z " /><path fill="rgb(0,0,0)" stroke="rgb(0,0,0)" stroke-width="1" opacity="0.8156862745098039" d="M 371.5 140 L 370.5 142 L 371.5 140 Z " /><path fill="rgb(0,0,0)" stroke="rgb(0,0,0)" stroke-width="1" opacity="0.8156862745098039" d="M 96.5 156 L 99 156.5 L 96.5 157 L 96.5 156 Z " /><path fill="rgb(0,0,0)" stroke="rgb(0,0,0)" stroke-width="1" opacity="0.8156862745098039" d="M 101.5 156 L 104 156.5 L 101.5 157 L 101.5 156 Z " /><path fill="rgb(0,0,0)" stroke="rgb(0,0,0)" stroke-width="1" opacity="0.8156862745098039" d="M 408.5 156 L 411 156.5 L 408.5 157 L 408.5 156 Z " /><path fill="rgb(0,0,0)" stroke="rgb(0,0,0)" stroke-width="1" opacity="0.8156862745098039" d="M 413.5 156 L 416 156.5 L 413.5 157 L 413.5 156 Z " /><path fill="rgb(0,0,0)" stroke="rgb(0,0,0)" stroke-width="1" opacity="0.8156862745098039" d="M 79.5 162 L 78.5 164 L 79.5 162 Z " /><path fill="rgb(0,0,0)" stroke="rgb(0,0,0)" stroke-width="1" opacity="0.8156862745098039" d="M 432.5 162 L 433.5 164 L 432.5 162 Z " /><path fill="rgb(0,0,0)" stroke="rgb(0,0,0)" stroke-width="1" opacity="0.8156862745098039" d="M 74.5 166 L 73.5 168 L 74.5 166 Z " /><path fill="rgb(0,0,0)" stroke="rgb(0,0,0)" stroke-width="1" opacity="0.8156862745098039" d="M 125.5 166 L 127.5 169 L 125.5 166 Z " /><path fill="rgb(0,0,0)" stroke="rgb(0,0,0)" stroke-width="1" opacity="0.8156862745098039" d="M 386.5 166 L 384.5 169 L 386.5 166 Z " /><path fill="rgb(0,0,0)" stroke="rgb(0,0,0)" stroke-width="1" opacity="0.8156862745098039" d="M 437.5 166 L 438.5 168 L 437.5 166 Z " /><path fill="rgb(0,0,0)" stroke="rgb(0,0,0)" stroke-width="1" opacity="0.8156862745098039" d="M 209.5 169 L 210.5 171 L 209.5 169 Z " /><path fill="rgb(0,0,0)" stroke="rgb(0,0,0)" stroke-width="1" opacity="0.8156862745098039" d="M 302.5 169 L 301.5 171 L 302.5 169 Z " /><path fill="rgb(0,0,0)" stroke="rgb(0,0,0)" stroke-width="1" opacity="0.8156862745098039" d="M 70.5 171 L 69.5 173 L 70.5 171 Z " /><path fill="rgb(0,0,0)" stroke="rgb(0,0,0)" stroke-width="1" opacity="0.8156862745098039" d="M 441.5 171 L 442.5 173 L 441.5 171 Z " /><path fill="rgb(0,0,0)" stroke="rgb(0,0,0)" stroke-width="1" opacity="0.8156862745098039" d="M 218.5 178 L 219.5 180 L 218.5 178 Z " /><path fill="rgb(0,0,0)" stroke="rgb(0,0,0)" stroke-width="1" opacity="0.8156862745098039" d="M 293.5 178 L 292.5 180 L 293.5 178 Z " /><path fill="rgb(0,0,0)" stroke="rgb(0,0,0)" stroke-width="1" opacity="0.8156862745098039" d="M 136.5 187 L 137 189.5 L 136 189.5 L 136.5 187 Z " /><path fill="rgb(0,0,0)" stroke="rgb(0,0,0)" stroke-width="1" opacity="0.8156862745098039" d="M 375.5 187 L 376 189.5 L 375 189.5 L 375.5 187 Z " /><path fill="rgb(0,0,0)" stroke="rgb(0,0,0)" stroke-width="1" opacity="0.8156862745098039" d="M 63.5 188 L 64 190.5 L 63 190.5 L 63.5 188 Z " /><path fill="rgb(0,0,0)" stroke="rgb(0,0,0)" stroke-width="1" opacity="0.8156862745098039" d="M 448.5 188 L 449 190.5 L 448 190.5 L 448.5 188 Z " /><path fill="rgb(0,0,0)" stroke="rgb(0,0,0)" stroke-width="1" opacity="0.8156862745098039" d="M 188.5 190 L 192.5 195 L 188.5 190 Z " /><path fill="rgb(0,0,0)" stroke="rgb(0,0,0)" stroke-width="1" opacity="0.8156862745098039" d="M 323.5 190 L 319.5 195 L 323.5 190 Z " /><path fill="rgb(0,0,0)" stroke="rgb(0,0,0)" stroke-width="1" opacity="0.8156862745098039" d="M 166.5 192 L 167 194.5 L 166 194.5 L 166.5 192 Z " /><path fill="rgb(0,0,0)" stroke="rgb(0,0,0)" stroke-width="1" opacity="0.8156862745098039" d="M 345.5 192 L 346 194.5 L 345 194.5 L 345.5 192 Z " /><path fill="rgb(0,0,0)" stroke="rgb(0,0,0)" stroke-width="1" opacity="0.8156862745098039" d="M 63.5 195 L 64 197.5 L 63 197.5 L 63.5 195 Z " /><path fill="rgb(0,0,0)" stroke="rgb(0,0,0)" stroke-width="1" opacity="0.8156862745098039" d="M 448.5 195 L 449 197.5 L 448 197.5 L 448.5 195 Z " /><path fill="rgb(0,0,0)" stroke="rgb(0,0,0)" stroke-width="1" opacity="0.8156862745098039" d="M 194.5 196 L 197.5 200 L 194.5 196 Z " /><path fill="rgb(0,0,0)" stroke="rgb(0,0,0)" stroke-width="1" opacity="0.8156862745098039" d="M 317.5 196 L 314.5 200 L 317.5 196 Z " /><path fill="rgb(0,0,0)" stroke="rgb(0,0,0)" stroke-width="1" opacity="0.8156862745098039" d="M 128.5 216 L 127.5 218 L 128.5 216 Z " /><path fill="rgb(0,0,0)" stroke="rgb(0,0,0)" stroke-width="1" opacity="0.8156862745098039" d="M 383.5 216 L 384.5 218 L 383.5 216 Z " /><path fill="rgb(0,0,0)" stroke="rgb(0,0,0)" stroke-width="1" opacity="0.8156862745098039" d="M 72.5 217 L 76.5 222 L 72.5 217 Z " /><path fill="rgb(0,0,0)" stroke="rgb(0,0,0)" stroke-width="1" opacity="0.8156862745098039" d="M 439.5 217 L 435.5 222 L 439.5 217 Z " /><path fill="rgb(0,0,0)" stroke="rgb(0,0,0)" stroke-width="1" opacity="0.8156862745098039" d="M 124.5 220 L 123.5 222 L 124.5 220 Z " /><path fill="rgb(0,0,0)" stroke="rgb(0,0,0)" stroke-width="1" opacity="0.8156862745098039" d="M 387.5 220 L 388.5 222 L 387.5 220 Z " /><path fill="rgb(0,0,0)" stroke="rgb(0,0,0)" stroke-width="1" opacity="0.8156862745098039" d="M 253.5 221 L 259 221.5 L 253.5 222 L 253.5 221 Z " /><path fill="rgb(0,0,0)" stroke="rgb(0,0,0)" stroke-width="1" opacity="0.8156862745098039" d="M 93.5 229 L 96 229.5 L 93.5 230 L 93.5 229 Z " /><path fill="rgb(0,0,0)" stroke="rgb(0,0,0)" stroke-width="1" opacity="0.8156862745098039" d="M 104.5 229 L 107 229.5 L 104.5 230 L 104.5 229 Z " /><path fill="rgb(0,0,0)" stroke="rgb(0,0,0)" stroke-width="1" opacity="0.8156862745098039" d="M 405.5 229 L 408 229.5 L 405.5 230 L 405.5 229 Z " /><path fill="rgb(0,0,0)" stroke="rgb(0,0,0)" stroke-width="1" opacity="0.8156862745098039" d="M 416.5 229 L 419 229.5 L 416.5 230 L 416.5 229 Z " /><path fill="rgb(0,0,0)" stroke="rgb(0,0,0)" stroke-width="1" opacity="0.8156862745098039" d="M 202.5 230 L 206 230.5 L 202.5 231 L 202.5 230 Z " /><path fill="rgb(0,0,0)" stroke="rgb(0,0,0)" stroke-width="1" opacity="0.8156862745098039" d="M 306.5 230 L 310 230.5 L 306.5 231 L 306.5 230 Z " /><path fill="rgb(0,0,0)" stroke="rgb(0,0,0)" stroke-width="1" opacity="0.8156862745098039" d="M 153.5 232 L 152.5 234 L 153.5 232 Z " /><path fill="rgb(0,0,0)" stroke="rgb(0,0,0)" stroke-width="1" opacity="0.8156862745098039" d="M 358.5 232 L 359.5 234 L 358.5 232 Z " /><path fill="rgb(0,0,0)" stroke="rgb(0,0,0)" stroke-width="1" opacity="0.8156862745098039" d="M 149.5 237 L 144.5 243 L 149.5 237 Z " /><path fill="rgb(0,0,0)" stroke="rgb(0,0,0)" stroke-width="1" opacity="0.8156862745098039" d="M 362.5 237 L 367.5 243 L 362.5 237 Z " /><path fill="rgb(0,0,0)" stroke="rgb(0,0,0)" stroke-width="1" opacity="0.8156862745098039" d="M 52.5 239 L 54.5 242 L 52.5 239 Z " /><path fill="rgb(0,0,0)" stroke="rgb(0,0,0)" stroke-width="1" opacity="0.8156862745098039" d="M 459.5 239 L 457.5 242 L 459.5 239 Z " /><path fill="rgb(0,0,0)" stroke="rgb(0,0,0)" stroke-width="1" opacity="0.8156862745098039" d="M 167.5 244 L 166.5 246 L 167.5 244 Z " /><path fill="rgb(0,0,0)" stroke="rgb(0,0,0)" stroke-width="1" opacity="0.8156862745098039" d="M 344.5 244 L 345.5 246 L 344.5 244 Z " /><path fill="rgb(0,0,0)" stroke="rgb(0,0,0)" stroke-width="1" opacity="0.8156862745098039" d="M 59.5 245 L 60.5 247 L 59.5 245 Z " /><path fill="rgb(0,0,0)" stroke="rgb(0,0,0)" stroke-width="1" opacity="0.8156862745098039" d="M 452.5 245 L 451.5 247 L 452.5 245 Z " /><path fill="rgb(0,0,0)" stroke="rgb(0,0,0)" stroke-width="1" opacity="0.8156862745098039" d="M 163.5 247 L 155.5 256 L 163.5 247 Z " /><path fill="rgb(0,0,0)" stroke="rgb(0,0,0)" stroke-width="1" opacity="0.8156862745098039" d="M 348.5 247 L 356.5 256 L 348.5 247 Z " /><path fill="rgb(0,0,0)" stroke="rgb(0,0,0)" stroke-width="1" opacity="0.8156862745098039" d="M 97.5 259 L 103 259.5 L 97.5 260 L 97.5 259 Z " /><path fill="rgb(0,0,0)" stroke="rgb(0,0,0)" stroke-width="1" opacity="0.8156862745098039" d="M 152.5 259 L 151.5 261 L 152.5 259 Z " /><path fill="rgb(0,0,0)" stroke="rgb(0,0,0)" stroke-width="1" opacity="0.8156862745098039" d="M 210.5 259 L 302 259.5 L 210.5 260 L 210.5 259 Z " /><path fill="rgb(0,0,0)" stroke="rgb(0,0,0)" stroke-width="1" opacity="0.8156862745098039" d="M 359.5 259 L 360.5 261 L 359.5 259 Z " /><path fill="rgb(0,0,0)" stroke="rgb(0,0,0)" stroke-width="1" opacity="0.8156862745098039" d="M 409.5 259 L 415 259.5 L 409.5 260 L 409.5 259 Z " /><path fill="rgb(0,0,0)" stroke="rgb(0,0,0)" stroke-width="1" opacity="0.8156862745098039" d="M 71.5 268 L 128 268.5 L 71.5 269 L 71.5 268 Z " /><path fill="rgb(0,0,0)" stroke="rgb(0,0,0)" stroke-width="1" opacity="0.8156862745098039" d="M 384.5 268 L 441 268.5 L 384.5 269 L 384.5 268 Z " /><path fill="rgb(0,0,0)" stroke="rgb(0,0,0)" stroke-width="1" opacity="0.8156862745098039" d="M 183.5 269 L 182.5 271 L 183.5 269 Z " /><path fill="rgb(0,0,0)" stroke="rgb(0,0,0)" stroke-width="1" opacity="0.8156862745098039" d="M 328.5 269 L 329.5 271 L 328.5 269 Z " /><path fill="rgb(0,0,0)" stroke="rgb(0,0,0)" stroke-width="1" opacity="0.8156862745098039" d="M 177.5 275 L 176.5 277 L 177.5 275 Z " /><path fill="rgb(0,0,0)" stroke="rgb(0,0,0)" stroke-width="1" opacity="0.8156862745098039" d="M 334.5 275 L 335.5 277 L 334.5 275 Z " /><path fill="rgb(0,0,0)" stroke="rgb(0,0,0)" stroke-width="1" opacity="0.8156862745098039" d="M 27.5 285 L 25.5 288 L 27.5 285 Z " /><path fill="rgb(0,0,0)" stroke="rgb(0,0,0)" stroke-width="1" opacity="0.8156862745098039" d="M 484.5 285 L 486.5 288 L 484.5 285 Z " /><path fill="rgb(0,0,0)" stroke="rgb(0,0,0)" stroke-width="1" opacity="0.8156862745098039" d="M 18.5 294 L 17.5 296 L 18.5 294 Z " /><path fill="rgb(0,0,0)" stroke="rgb(0,0,0)" stroke-width="1" opacity="0.8156862745098039" d="M 493.5 294 L 494.5 296 L 493.5 294 Z " /><path fill="rgb(0,0,0)" stroke="rgb(0,0,0)" stroke-width="1" opacity="0.8156862745098039" d="M 442.5 298 L 445 298.5 L 442.5 299 L 442.5 298 Z " /><path fill="rgb(0,0,0)" stroke="rgb(0,0,0)" stroke-width="1" opacity="0.8156862745098039" d="M 166.5 303 L 167 438 L 345 438 L 345 303.5 L 346 303.5 L 346 437.5 L 344.5 439 L 167.5 439 L 166 437.5 L 166.5 303 Z " /><path fill="rgb(0,0,0)" stroke="rgb(0,0,0)" stroke-width="1" opacity="0.8156862745098039" d="M 48.5 306 L 47.5 308 L 48.5 306 Z " /><path fill="rgb(0,0,0)" stroke="rgb(0,0,0)" stroke-width="1" opacity="0.8156862745098039" d="M 463.5 306 L 464.5 308 L 463.5 306 Z " /><path fill="rgb(0,0,0)" stroke="rgb(0,0,0)" stroke-width="1" opacity="0.8156862745098039" d="M 39.5 315 L 38.5 317 L 39.5 315 Z " /><path fill="rgb(0,0,0)" stroke="rgb(0,0,0)" stroke-width="1" opacity="0.8156862745098039" d="M 472.5 315 L 473.5 317 L 472.5 315 Z " /><path fill="rgb(0,0,0)" stroke="rgb(0,0,0)" stroke-width="1" opacity="0.8156862745098039" d="M 30.5 334 L 31 336.5 L 30 336.5 L 30.5 334 Z " /><path fill="rgb(0,0,0)" stroke="rgb(0,0,0)" stroke-width="1" opacity="0.8156862745098039" d="M 481.5 334 L 482 336.5 L 481 336.5 L 481.5 334 Z " /><path fill="rgb(0,0,0)" stroke="rgb(0,0,0)" stroke-width="1" opacity="0.8156862745098039" d="M 0.5 336 L 1 340.5 L 0 340.5 L 0.5 336 Z " /><path fill="rgb(0,0,0)" stroke="rgb(0,0,0)" stroke-width="1" opacity="0.8156862745098039" d="M 511.5 336 L 512 340.5 L 511 340.5 L 511.5 336 Z " /><path fill="rgb(0,0,0)" stroke="rgb(0,0,0)" stroke-width="1" opacity="0.8156862745098039" d="M 0.5 424 L 1 426.5 L 0 426.5 L 0.5 424 Z " /><path fill="rgb(0,0,0)" stroke="rgb(0,0,0)" stroke-width="1" opacity="0.8156862745098039" d="M 511.5 424 L 512 426.5 L 511 426.5 L 511.5 424 Z " /><path fill="rgb(0,0,0)" stroke="rgb(0,0,0)" stroke-width="1" opacity="0.8156862745098039" d="M 43.5 438 L 137 438.5 L 43.5 439 L 43.5 438 Z " /><path fill="rgb(0,0,0)" stroke="rgb(0,0,0)" stroke-width="1" opacity="0.8156862745098039" d="M 375.5 438 L 469 438.5 L 375.5 439 L 375.5 438 Z " /><path fill="rgb(0,0,0)" stroke="rgb(0,0,0)" stroke-width="1" opacity="0.8156862745098039" d="M 10.5 451 L 11.5 453 L 10.5 451 Z " /><path fill="rgb(0,0,0)" stroke="rgb(0,0,0)" stroke-width="1" opacity="0.8156862745098039" d="M 501.5 451 L 500.5 453 L 501.5 451 Z " /><path fill="rgb(0,0,0)" stroke="rgb(0,0,0)" stroke-width="1" opacity="0.8156862745098039" d="M 15.5 456 L 16.5 458 L 15.5 456 Z " /><path fill="rgb(0,0,0)" stroke="rgb(0,0,0)" stroke-width="1" opacity="0.8156862745098039" d="M 496.5 456 L 495.5 458 L 496.5 456 Z " /><path fill="rgb(0,0,0)" stroke="rgb(0,0,0)" stroke-width="1" opacity="0" d="M 0 0 L 512 0 L 512 331.5 L 511 331.5 Q 506 301.5 486.5 286 Q 477.5 278 465.5 273 L 446.5 268 L 377.5 268 L 367.5 270 Q 359.4 255.1 346.5 245 Q 333 234 312.5 230 L 303.5 230 L 302.5 229 L 209.5 229 L 208.5 230 L 199.5 230 L 190.5 232 L 172.5 240 L 152 258.5 L 144.5 270 L 134.5 268 L 65.5 268 Q 34.5 273.5 18 293.5 Q 4.3 307.8 0.5 332 L 0 0 Z M 254 43 L 253 44 L 243 44 L 227 48 Q 211 54 199 64 Q 174 84 167 122 L 167 145 L 171 162 Q 178 182 192 196 Q 205 208 223 216 L 246 222 L 267 222 L 290 216 Q 306 209 319 197 L 335 176 L 342 159 L 345 145 L 345 122 L 342 108 Q 336 89 325 76 Q 312 59 291 50 L 270 44 L 254 43 Z M 94 126 L 75 131 L 58 141 L 43 158 L 37 170 L 33 187 L 33 201 L 35 211 Q 39 225 47 235 Q 62 255 92 260 L 109 260 L 119 258 Q 132 254 142 246 Q 162 231 167 202 L 167 186 L 165 176 Q 161 161 152 151 Q 141 137 124 130 L 107 126 L 94 126 Z M 406 126 L 389 130 L 370 141 Q 360 149 353 161 L 347 176 L 345 186 L 345 202 L 348 215 L 359 235 Q 374 255 404 260 L 421 260 Q 422 258 427 259 Q 442 255 454 246 Q 474 231 479 201 L 479 187 L 477 176 Q 473 161 464 151 Q 454 138 438 131 L 419 126 L 406 126 Z " /><path fill="rgb(0,0,0)" stroke="rgb(0,0,0)" stroke-width="1" opacity="0" d="M 249.5 74 L 262.5 74 L 275.5 77 Q 289.6 82.4 299 92.5 Q 314.2 106.8 315 135.5 L 312 151.5 L 307 162.5 L 292.5 179 Q 283.5 186.5 270.5 190 L 265.5 191 L 246.5 191 Q 222.3 186.2 210 169.5 Q 203.5 162 200 151.5 L 198 143.5 L 197 130.5 L 198 129.5 L 198 121.5 L 201 111.5 Q 206.4 97.9 216.5 89 L 229.5 80 L 239.5 76 L 249.5 74 Z " /><path fill="rgb(0,0,0)" stroke="rgb(0,0,0)" stroke-width="1" opacity="0" d="M 94.5 157 L 105.5 157 L 115.5 160 L 127 168.5 Q 133.2 175.3 136 185.5 L 136 200.5 Q 132.6 213.6 123.5 221 L 107.5 229 L 92.5 229 Q 80.1 225.9 73 217.5 Q 62.3 208.2 64 186.5 L 67 177.5 L 74 167 L 84.5 160 L 94.5 157 Z " /><path fill="rgb(0,0,0)" stroke="rgb(0,0,0)" stroke-width="1" opacity="0" d="M 406.5 157 L 421.5 158 L 427.5 160 L 438 167 L 445 177.5 L 448 186.5 L 448 199.5 Q 445 213.5 435.5 221 L 419.5 229 L 404.5 229 Q 391.4 225.6 384 216.5 L 376 200.5 L 376 185.5 Q 379.1 174.1 386.5 167 Q 393.8 159.3 406.5 157 Z " /><path fill="rgb(0,0,0)" stroke="rgb(0,0,0)" stroke-width="1" opacity="0" d="M 207.5 260 L 304.5 260 L 316.5 263 L 324.5 267 L 335 276.5 L 342 288.5 L 345 301.5 L 345 438 L 167 438 L 167 301.5 Q 169.5 300 168 294.5 L 174 280.5 L 183.5 270 L 195.5 263 L 207.5 260 Z " /><path fill="rgb(0,0,0)" stroke="rgb(0,0,0)" stroke-width="1" opacity="0" d="M 66.5 299 L 133.5 299 L 136 300 L 136 438 L 42.5 438 Q 35.3 436.2 32 430.5 L 30 423.5 L 30 342.5 L 31 341.5 L 31 333.5 L 37 319.5 L 48.5 307 L 59.5 301 L 66.5 299 Z " /><path fill="rgb(0,0,0)" stroke="rgb(0,0,0)" stroke-width="1" opacity="0" d="M 378.5 299 L 445.5 299 Q 463.6 303.4 473 316.5 L 479 327.5 L 482 342.5 L 482 423.5 L 480 430.5 L 474.5 436 L 469.5 438 L 376 438 L 376 300.5 L 377.5 300 L 378.5 299 Z " /><path fill="rgb(0,0,0)" stroke="rgb(0,0,0)" stroke-width="1" opacity="0" d="M 0.5 432 Q 3.9 448.1 14.5 457 L 26.5 465 L 35.5 468 Q 41.8 466.3 43.5 469 L 468.5 469 Q 470.3 466.3 476.5 468 L 485.5 465 L 501 453.5 L 510 438.5 L 511.5 432 L 512 512 L 0.5 512 L 0 511.5 L 0.5 432 Z " /><path fill="rgb(0,0,0)" stroke="rgb(0,0,0)" stroke-width="1" opacity="0.4627450980392157" d="M 195.5 67 L 190.5 73 L 195.5 67 Z " /><path fill="rgb(0,0,0)" stroke="rgb(0,0,0)" stroke-width="1" opacity="0.4627450980392157" d="M 316.5 67 L 321.5 73 L 316.5 67 Z " /><path fill="rgb(0,0,0)" stroke="rgb(0,0,0)" stroke-width="1" opacity="0.4627450980392157" d="M 167.5 122 L 168 124.5 L 167 124.5 L 167.5 122 Z " /><path fill="rgb(0,0,0)" stroke="rgb(0,0,0)" stroke-width="1" opacity="0.4627450980392157" d="M 344.5 122 L 345 124.5 L 344 124.5 L 344.5 122 Z " /><path fill="rgb(0,0,0)" stroke="rgb(0,0,0)" stroke-width="1" opacity="0.4627450980392157" d="M 97.5 126 L 103 126.5 L 97.5 127 L 97.5 126 Z " /><path fill="rgb(0,0,0)" stroke="rgb(0,0,0)" stroke-width="1" opacity="0.4627450980392157" d="M 409.5 126 L 415 126.5 L 409.5 127 L 409.5 126 Z " /><path fill="rgb(0,0,0)" stroke="rgb(0,0,0)" stroke-width="1" opacity="0.4627450980392157" d="M 60.5 139 L 59.5 141 L 60.5 139 Z " /><path fill="rgb(0,0,0)" stroke="rgb(0,0,0)" stroke-width="1" opacity="0.4627450980392157" d="M 451.5 139 L 452.5 141 L 451.5 139 Z " /><path fill="rgb(0,0,0)" stroke="rgb(0,0,0)" stroke-width="1" opacity="0.4627450980392157" d="M 167.5 140 L 168 142.5 L 167 142.5 L 167.5 140 Z " /><path fill="rgb(0,0,0)" stroke="rgb(0,0,0)" stroke-width="1" opacity="0.4627450980392157" d="M 344.5 140 L 345 142.5 L 344 142.5 L 344.5 140 Z " /><path fill="rgb(0,0,0)" stroke="rgb(0,0,0)" stroke-width="1" opacity="0.4627450980392157" d="M 144.5 143 L 149.5 149 L 144.5 143 Z " /><path fill="rgb(0,0,0)" stroke="rgb(0,0,0)" stroke-width="1" opacity="0.4627450980392157" d="M 367.5 143 L 362.5 149 L 367.5 143 Z " /><path fill="rgb(0,0,0)" stroke="rgb(0,0,0)" stroke-width="1" opacity="0.4627450980392157" d="M 54.5 144 L 51.5 148 L 54.5 144 Z " /><path fill="rgb(0,0,0)" stroke="rgb(0,0,0)" stroke-width="1" opacity="0.4627450980392157" d="M 457.5 144 L 460.5 148 L 457.5 144 Z " /><path fill="rgb(0,0,0)" stroke="rgb(0,0,0)" stroke-width="1" opacity="0.4627450980392157" d="M 47.5 152 L 46.5 154 L 47.5 152 Z " /><path fill="rgb(0,0,0)" stroke="rgb(0,0,0)" stroke-width="1" opacity="0.4627450980392157" d="M 464.5 152 L 465.5 154 L 464.5 152 Z " /><path fill="rgb(0,0,0)" stroke="rgb(0,0,0)" stroke-width="1" opacity="0.4627450980392157" d="M 121.5 163 L 122.5 165 L 121.5 163 Z " /><path fill="rgb(0,0,0)" stroke="rgb(0,0,0)" stroke-width="1" opacity="0.4627450980392157" d="M 390.5 163 L 389.5 165 L 390.5 163 Z " /><path fill="rgb(0,0,0)" stroke="rgb(0,0,0)" stroke-width="1" opacity="0.4627450980392157" d="M 207.5 166 L 208.5 168 L 207.5 166 Z " /><path fill="rgb(0,0,0)" stroke="rgb(0,0,0)" stroke-width="1" opacity="0.4627450980392157" d="M 304.5 166 L 303.5 168 L 304.5 166 Z " /><path fill="rgb(0,0,0)" stroke="rgb(0,0,0)" stroke-width="1" opacity="0.4627450980392157" d="M 128.5 170 L 129.5 172 L 128.5 170 Z " /><path fill="rgb(0,0,0)" stroke="rgb(0,0,0)" stroke-width="1" opacity="0.4627450980392157" d="M 383.5 170 L 382.5 172 L 383.5 170 Z " /><path fill="rgb(0,0,0)" stroke="rgb(0,0,0)" stroke-width="1" opacity="0.4627450980392157" d="M 211.5 171 L 213.5 174 L 211.5 171 Z " /><path fill="rgb(0,0,0)" stroke="rgb(0,0,0)" stroke-width="1" opacity="0.4627450980392157" d="M 300.5 171 L 298.5 174 L 300.5 171 Z " /><path fill="rgb(0,0,0)" stroke="rgb(0,0,0)" stroke-width="1" opacity="0.4627450980392157" d="M 215.5 175 L 217.5 178 L 215.5 175 Z " /><path fill="rgb(0,0,0)" stroke="rgb(0,0,0)" stroke-width="1" opacity="0.4627450980392157" d="M 296.5 175 L 294.5 178 L 296.5 175 Z " /><path fill="rgb(0,0,0)" stroke="rgb(0,0,0)" stroke-width="1" opacity="0.4627450980392157" d="M 166.5 186 L 167 191.5 L 166 191.5 L 166.5 186 Z " /><path fill="rgb(0,0,0)" stroke="rgb(0,0,0)" stroke-width="1" opacity="0.4627450980392157" d="M 345.5 186 L 346 191.5 L 345 191.5 L 345.5 186 Z " /><path fill="rgb(0,0,0)" stroke="rgb(0,0,0)" stroke-width="1" opacity="0.4627450980392157" d="M 33.5 188 L 34 197.5 L 33 197.5 L 33.5 188 Z " /><path fill="rgb(0,0,0)" stroke="rgb(0,0,0)" stroke-width="1" opacity="0.4627450980392157" d="M 478.5 188 L 479 197.5 L 478 197.5 L 478.5 188 Z " /><path fill="rgb(0,0,0)" stroke="rgb(0,0,0)" stroke-width="1" opacity="0.4627450980392157" d="M 63.5 191 L 64 194.5 L 63 194.5 L 63.5 191 Z " /><path fill="rgb(0,0,0)" stroke="rgb(0,0,0)" stroke-width="1" opacity="0.4627450980392157" d="M 249.5 191 L 253 191.5 L 249.5 192 L 249.5 191 Z " /><path fill="rgb(0,0,0)" stroke="rgb(0,0,0)" stroke-width="1" opacity="0.4627450980392157" d="M 259.5 191 L 263 191.5 L 259.5 192 L 259.5 191 Z " /><path fill="rgb(0,0,0)" stroke="rgb(0,0,0)" stroke-width="1" opacity="0.4627450980392157" d="M 448.5 191 L 449 194.5 L 448 194.5 L 448.5 191 Z " /><path fill="rgb(0,0,0)" stroke="rgb(0,0,0)" stroke-width="1" opacity="0.4627450980392157" d="M 136.5 194 L 137 196.5 L 136 196.5 L 136.5 194 Z " /><path fill="rgb(0,0,0)" stroke="rgb(0,0,0)" stroke-width="1" opacity="0.4627450980392157" d="M 375.5 194 L 376 196.5 L 375 196.5 L 375.5 194 Z " /><path fill="rgb(0,0,0)" stroke="rgb(0,0,0)" stroke-width="1" opacity="0.4627450980392157" d="M 166.5 195 L 167 199.5 L 166 199.5 L 166.5 195 Z " /><path fill="rgb(0,0,0)" stroke="rgb(0,0,0)" stroke-width="1" opacity="0.4627450980392157" d="M 345.5 195 L 346 199.5 L 345 199.5 L 345.5 195 Z " /><path fill="rgb(0,0,0)" stroke="rgb(0,0,0)" stroke-width="1" opacity="0.4627450980392157" d="M 198.5 200 L 199.5 202 L 198.5 200 Z " /><path fill="rgb(0,0,0)" stroke="rgb(0,0,0)" stroke-width="1" opacity="0.4627450980392157" d="M 313.5 200 L 312.5 202 L 313.5 200 Z " /><path fill="rgb(0,0,0)" stroke="rgb(0,0,0)" stroke-width="1" opacity="0.4627450980392157" d="M 126.5 218 L 125.5 220 L 126.5 218 Z " /><path fill="rgb(0,0,0)" stroke="rgb(0,0,0)" stroke-width="1" opacity="0.4627450980392157" d="M 385.5 218 L 386.5 220 L 385.5 218 Z " /><path fill="rgb(0,0,0)" stroke="rgb(0,0,0)" stroke-width="1" opacity="0.4627450980392157" d="M 247.5 221 L 253 221.5 L 247.5 222 L 247.5 221 Z " /><path fill="rgb(0,0,0)" stroke="rgb(0,0,0)" stroke-width="1" opacity="0.4627450980392157" d="M 259.5 221 L 265 221.5 L 259.5 222 L 259.5 221 Z " /><path fill="rgb(0,0,0)" stroke="rgb(0,0,0)" stroke-width="1" opacity="0.4627450980392157" d="M 78.5 222 L 79.5 224 L 78.5 222 Z " /><path fill="rgb(0,0,0)" stroke="rgb(0,0,0)" stroke-width="1" opacity="0.4627450980392157" d="M 433.5 222 L 432.5 224 L 433.5 222 Z " /><path fill="rgb(0,0,0)" stroke="rgb(0,0,0)" stroke-width="1" opacity="0.4627450980392157" d="M 96.5 229 L 99 229.5 L 96.5 230 L 96.5 229 Z " /><path fill="rgb(0,0,0)" stroke="rgb(0,0,0)" stroke-width="1" opacity="0.4627450980392157" d="M 101.5 229 L 104 229.5 L 101.5 230 L 101.5 229 Z " /><path fill="rgb(0,0,0)" stroke="rgb(0,0,0)" stroke-width="1" opacity="0.4627450980392157" d="M 408.5 229 L 411 229.5 L 408.5 230 L 408.5 229 Z " /><path fill="rgb(0,0,0)" stroke="rgb(0,0,0)" stroke-width="1" opacity="0.4627450980392157" d="M 413.5 229 L 416 229.5 L 413.5 230 L 413.5 229 Z " /><path fill="rgb(0,0,0)" stroke="rgb(0,0,0)" stroke-width="1" opacity="0.4627450980392157" d="M 48.5 235 L 51.5 239 L 48.5 235 Z " /><path fill="rgb(0,0,0)" stroke="rgb(0,0,0)" stroke-width="1" opacity="0.4627450980392157" d="M 151.5 235 L 150.5 237 L 151.5 235 Z " /><path fill="rgb(0,0,0)" stroke="rgb(0,0,0)" stroke-width="1" opacity="0.4627450980392157" d="M 360.5 235 L 361.5 237 L 360.5 235 Z " /><path fill="rgb(0,0,0)" stroke="rgb(0,0,0)" stroke-width="1" opacity="0.4627450980392157" d="M 463.5 235 L 460.5 239 L 463.5 235 Z " /><path fill="rgb(0,0,0)" stroke="rgb(0,0,0)" stroke-width="1" opacity="0.4627450980392157" d="M 55.5 242 L 57.5 245 L 55.5 242 Z " /><path fill="rgb(0,0,0)" stroke="rgb(0,0,0)" stroke-width="1" opacity="0.4627450980392157" d="M 456.5 242 L 454.5 245 L 456.5 242 Z " /><path fill="rgb(0,0,0)" stroke="rgb(0,0,0)" stroke-width="1" opacity="0.4627450980392157" d="M 143.5 243 L 142.5 245 L 143.5 243 Z " /><path fill="rgb(0,0,0)" stroke="rgb(0,0,0)" stroke-width="1" opacity="0.4627450980392157" d="M 368.5 243 L 369.5 245 L 368.5 243 Z " /><path fill="rgb(0,0,0)" stroke="rgb(0,0,0)" stroke-width="1" opacity="0.4627450980392157" d="M 93.5 259 L 97 259.5 L 93.5 260 L 93.5 259 Z " /><path fill="rgb(0,0,0)" stroke="rgb(0,0,0)" stroke-width="1" opacity="0.4627450980392157" d="M 103.5 259 L 107 259.5 L 103.5 260 L 103.5 259 Z " /><path fill="rgb(0,0,0)" stroke="rgb(0,0,0)" stroke-width="1" opacity="0.4627450980392157" d="M 405.5 259 L 409 259.5 L 405.5 260 L 405.5 259 Z " /><path fill="rgb(0,0,0)" stroke="rgb(0,0,0)" stroke-width="1" opacity="0.4627450980392157" d="M 415.5 259 L 419 259.5 L 415.5 260 L 415.5 259 Z " /><path fill="rgb(0,0,0)" stroke="rgb(0,0,0)" stroke-width="1" opacity="0.4627450980392157" d="M 67.5 268 L 71 268.5 L 67.5 269 L 67.5 268 Z " /><path fill="rgb(0,0,0)" stroke="rgb(0,0,0)" stroke-width="1" opacity="0.4627450980392157" d="M 128.5 268 L 132 268.5 L 128.5 269 L 128.5 268 Z " /><path fill="rgb(0,0,0)" stroke="rgb(0,0,0)" stroke-width="1" opacity="0.4627450980392157" d="M 380.5 268 L 384 268.5 L 380.5 269 L 380.5 268 Z " /><path fill="rgb(0,0,0)" stroke="rgb(0,0,0)" stroke-width="1" opacity="0.4627450980392157" d="M 441.5 268 L 445 268.5 L 441.5 269 L 441.5 268 Z " /><path fill="rgb(0,0,0)" stroke="rgb(0,0,0)" stroke-width="1" opacity="0.4627450980392157" d="M 181.5 271 L 178.5 275 L 181.5 271 Z " /><path fill="rgb(0,0,0)" stroke="rgb(0,0,0)" stroke-width="1" opacity="0.4627450980392157" d="M 330.5 271 L 333.5 275 L 330.5 271 Z " /><path fill="rgb(0,0,0)" stroke="rgb(0,0,0)" stroke-width="1" opacity="0.4627450980392157" d="M 16.5 296 L 15.5 298 L 16.5 296 Z " /><path fill="rgb(0,0,0)" stroke="rgb(0,0,0)" stroke-width="1" opacity="0.4627450980392157" d="M 495.5 296 L 496.5 298 L 495.5 296 Z " /><path fill="rgb(0,0,0)" stroke="rgb(0,0,0)" stroke-width="1" opacity="0.4627450980392157" d="M 70.5 298 L 73 298.5 L 70.5 299 L 70.5 298 Z " /><path fill="rgb(0,0,0)" stroke="rgb(0,0,0)" stroke-width="1" opacity="0.4627450980392157" d="M 128.5 298 L 131 298.5 L 128.5 299 L 128.5 298 Z " /><path fill="rgb(0,0,0)" stroke="rgb(0,0,0)" stroke-width="1" opacity="0.4627450980392157" d="M 381.5 298 L 384 298.5 L 381.5 299 L 381.5 298 Z " /><path fill="rgb(0,0,0)" stroke="rgb(0,0,0)" stroke-width="1" opacity="0.4627450980392157" d="M 439.5 298 L 442 298.5 L 439.5 299 L 439.5 298 Z " /><path fill="rgb(0,0,0)" stroke="rgb(0,0,0)" stroke-width="1" opacity="0.4627450980392157" d="M 46.5 308 L 45.5 310 L 46.5 308 Z " /><path fill="rgb(0,0,0)" stroke="rgb(0,0,0)" stroke-width="1" opacity="0.4627450980392157" d="M 465.5 308 L 466.5 310 L 465.5 308 Z " /><path fill="rgb(0,0,0)" stroke="rgb(0,0,0)" stroke-width="1" opacity="0.4627450980392157" d="M 41.5 313 L 40.5 315 L 41.5 313 Z " /><path fill="rgb(0,0,0)" stroke="rgb(0,0,0)" stroke-width="1" opacity="0.4627450980392157" d="M 470.5 313 L 471.5 315 L 470.5 313 Z " /><path fill="rgb(0,0,0)" stroke="rgb(0,0,0)" stroke-width="1" opacity="0.4627450980392157" d="M 30.5 337 L 31 339.5 L 30 339.5 L 30.5 337 Z " /><path fill="rgb(0,0,0)" stroke="rgb(0,0,0)" stroke-width="1" opacity="0.4627450980392157" d="M 481.5 337 L 482 339.5 L 481 339.5 L 481.5 337 Z " /><path fill="rgb(0,0,0)" stroke="rgb(0,0,0)" stroke-width="1" opacity="0.4627450980392157" d="M 0.5 427 L 1 429.5 L 0 429.5 L 0.5 427 Z " /><path fill="rgb(0,0,0)" stroke="rgb(0,0,0)" stroke-width="1" opacity="0.4627450980392157" d="M 511.5 427 L 512 429.5 L 511 429.5 L 511.5 427 Z " /><path fill="rgb(0,0,0)" stroke="rgb(0,0,0)" stroke-width="1" opacity="0.4627450980392157" d="M 8.5 449 L 9.5 451 L 8.5 449 Z " /><path fill="rgb(0,0,0)" stroke="rgb(0,0,0)" stroke-width="1" opacity="0.4627450980392157" d="M 503.5 449 L 502.5 451 L 503.5 449 Z " /><path fill="rgb(0,0,0)" stroke="rgb(0,0,0)" stroke-width="1" opacity="0.4627450980392157" d="M 17.5 458 L 18.5 460 L 17.5 458 Z " /><path fill="rgb(0,0,0)" stroke="rgb(0,0,0)" stroke-width="1" opacity="0.4627450980392157" d="M 494.5 458 L 493.5 460 L 494.5 458 Z " /><path fill="rgb(0,0,0)" stroke="rgb(0,0,0)" stroke-width="1" opacity="0.4627450980392157" d="M 36.5 467 L 39 467.5 L 36.5 468 L 36.5 467 Z " /><path fill="rgb(0,0,0)" stroke="rgb(0,0,0)" stroke-width="1" opacity="0.4627450980392157" d="M 473.5 467 L 476 467.5 L 473.5 468 L 473.5 467 Z " /><path fill="rgb(0,0,0)" stroke="rgb(0,0,0)" stroke-width="1" opacity="0.24313725490196078" d="M 253.5 43 L 259 43.5 L 253.5 44 L 253.5 43 Z " /><path fill="rgb(0,0,0)" stroke="rgb(0,0,0)" stroke-width="1" opacity="0.24313725490196078" d="M 198.5 64 L 196.5 67 L 198.5 64 Z " /><path fill="rgb(0,0,0)" stroke="rgb(0,0,0)" stroke-width="1" opacity="0.24313725490196078" d="M 313.5 64 L 315.5 67 L 313.5 64 Z " /><path fill="rgb(0,0,0)" stroke="rgb(0,0,0)" stroke-width="1" opacity="0.24313725490196078" d="M 189.5 73 L 187.5 76 L 189.5 73 Z " /><path fill="rgb(0,0,0)" stroke="rgb(0,0,0)" stroke-width="1" opacity="0.24313725490196078" d="M 322.5 73 L 324.5 76 L 322.5 73 Z " /><path fill="rgb(0,0,0)" stroke="rgb(0,0,0)" stroke-width="1" opacity="0.24313725490196078" d="M 218.5 87 L 217.5 89 L 218.5 87 Z " /><path fill="rgb(0,0,0)" stroke="rgb(0,0,0)" stroke-width="1" opacity="0.24313725490196078" d="M 293.5 87 L 294.5 89 L 293.5 87 Z " /><path fill="rgb(0,0,0)" stroke="rgb(0,0,0)" stroke-width="1" opacity="0.24313725490196078" d="M 212.5 93 L 210.5 96 L 212.5 93 Z " /><path fill="rgb(0,0,0)" stroke="rgb(0,0,0)" stroke-width="1" opacity="0.24313725490196078" d="M 299.5 93 L 301.5 96 L 299.5 93 Z " /><path fill="rgb(0,0,0)" stroke="rgb(0,0,0)" stroke-width="1" opacity="0.24313725490196078" d="M 93.5 126 L 97 126.5 L 93.5 127 L 93.5 126 Z " /><path fill="rgb(0,0,0)" stroke="rgb(0,0,0)" stroke-width="1" opacity="0.24313725490196078" d="M 103.5 126 L 107 126.5 L 103.5 127 L 103.5 126 Z " /><path fill="rgb(0,0,0)" stroke="rgb(0,0,0)" stroke-width="1" opacity="0.24313725490196078" d="M 197.5 126 L 198 129.5 L 197 129.5 L 197.5 126 Z " /><path fill="rgb(0,0,0)" stroke="rgb(0,0,0)" stroke-width="1" opacity="0.24313725490196078" d="M 314.5 126 L 315 129.5 L 314 129.5 L 314.5 126 Z " /><path fill="rgb(0,0,0)" stroke="rgb(0,0,0)" stroke-width="1" opacity="0.24313725490196078" d="M 405.5 126 L 409 126.5 L 405.5 127 L 405.5 126 Z " /><path fill="rgb(0,0,0)" stroke="rgb(0,0,0)" stroke-width="1" opacity="0.24313725490196078" d="M 415.5 126 L 419 126.5 L 415.5 127 L 415.5 126 Z " /><path fill="rgb(0,0,0)" stroke="rgb(0,0,0)" stroke-width="1" opacity="0.24313725490196078" d="M 197.5 136 L 198 138.5 L 197 138.5 L 197.5 136 Z " /><path fill="rgb(0,0,0)" stroke="rgb(0,0,0)" stroke-width="1" opacity="0.24313725490196078" d="M 314.5 136 L 315 138.5 L 314 138.5 L 314.5 136 Z " /><path fill="rgb(0,0,0)" stroke="rgb(0,0,0)" stroke-width="1" opacity="0.24313725490196078" d="M 57.5 141 L 55.5 144 L 57.5 141 Z " /><path fill="rgb(0,0,0)" stroke="rgb(0,0,0)" stroke-width="1" opacity="0.24313725490196078" d="M 142.5 141 L 143.5 143 L 142.5 141 Z " /><path fill="rgb(0,0,0)" stroke="rgb(0,0,0)" stroke-width="1" opacity="0.24313725490196078" d="M 369.5 141 L 368.5 143 L 369.5 141 Z " /><path fill="rgb(0,0,0)" stroke="rgb(0,0,0)" stroke-width="1" opacity="0.24313725490196078" d="M 454.5 141 L 456.5 144 L 454.5 141 Z " /><path fill="rgb(0,0,0)" stroke="rgb(0,0,0)" stroke-width="1" opacity="0.24313725490196078" d="M 50.5 148 L 48.5 151 L 50.5 148 Z " /><path fill="rgb(0,0,0)" stroke="rgb(0,0,0)" stroke-width="1" opacity="0.24313725490196078" d="M 461.5 148 L 463.5 151 L 461.5 148 Z " /><path fill="rgb(0,0,0)" stroke="rgb(0,0,0)" stroke-width="1" opacity="0.24313725490196078" d="M 150.5 149 L 151.5 151 L 150.5 149 Z " /><path fill="rgb(0,0,0)" stroke="rgb(0,0,0)" stroke-width="1" opacity="0.24313725490196078" d="M 361.5 149 L 360.5 151 L 361.5 149 Z " /><path fill="rgb(0,0,0)" stroke="rgb(0,0,0)" stroke-width="1" opacity="0.24313725490196078" d="M 76.5 165 L 75.5 167 L 76.5 165 Z " /><path fill="rgb(0,0,0)" stroke="rgb(0,0,0)" stroke-width="1" opacity="0.24313725490196078" d="M 123.5 165 L 124.5 167 L 123.5 165 Z " /><path fill="rgb(0,0,0)" stroke="rgb(0,0,0)" stroke-width="1" opacity="0.24313725490196078" d="M 388.5 165 L 387.5 167 L 388.5 165 Z " /><path fill="rgb(0,0,0)" stroke="rgb(0,0,0)" stroke-width="1" opacity="0.24313725490196078" d="M 435.5 165 L 436.5 167 L 435.5 165 Z " /><path fill="rgb(0,0,0)" stroke="rgb(0,0,0)" stroke-width="1" opacity="0.24313725490196078" d="M 73.5 168 L 72.5 170 L 73.5 168 Z " /><path fill="rgb(0,0,0)" stroke="rgb(0,0,0)" stroke-width="1" opacity="0.24313725490196078" d="M 438.5 168 L 439.5 170 L 438.5 168 Z " /><path fill="rgb(0,0,0)" stroke="rgb(0,0,0)" stroke-width="1" opacity="0.24313725490196078" d="M 182.5 183 L 183.5 185 L 182.5 183 Z " /><path fill="rgb(0,0,0)" stroke="rgb(0,0,0)" stroke-width="1" opacity="0.24313725490196078" d="M 329.5 183 L 328.5 185 L 329.5 183 Z " /><path fill="rgb(0,0,0)" stroke="rgb(0,0,0)" stroke-width="1" opacity="0.24313725490196078" d="M 185.5 187 L 186.5 189 L 185.5 187 Z " /><path fill="rgb(0,0,0)" stroke="rgb(0,0,0)" stroke-width="1" opacity="0.24313725490196078" d="M 326.5 187 L 325.5 189 L 326.5 187 Z " /><path fill="rgb(0,0,0)" stroke="rgb(0,0,0)" stroke-width="1" opacity="0.24313725490196078" d="M 253.5 191 L 259 191.5 L 253.5 192 L 253.5 191 Z " /><path fill="rgb(0,0,0)" stroke="rgb(0,0,0)" stroke-width="1" opacity="0.24313725490196078" d="M 192.5 195 L 193.5 197 L 192.5 195 Z " /><path fill="rgb(0,0,0)" stroke="rgb(0,0,0)" stroke-width="1" opacity="0.24313725490196078" d="M 319.5 195 L 318.5 197 L 319.5 195 Z " /><path fill="rgb(0,0,0)" stroke="rgb(0,0,0)" stroke-width="1" opacity="0.24313725490196078" d="M 33.5 198 L 34 200.5 L 33 200.5 L 33.5 198 Z " /><path fill="rgb(0,0,0)" stroke="rgb(0,0,0)" stroke-width="1" opacity="0.24313725490196078" d="M 478.5 198 L 479 200.5 L 478 200.5 L 478.5 198 Z " /><path fill="rgb(0,0,0)" stroke="rgb(0,0,0)" stroke-width="1" opacity="0.24313725490196078" d="M 129.5 214 L 128.5 216 L 129.5 214 Z " /><path fill="rgb(0,0,0)" stroke="rgb(0,0,0)" stroke-width="1" opacity="0.24313725490196078" d="M 382.5 214 L 383.5 216 L 382.5 214 Z " /><path fill="rgb(0,0,0)" stroke="rgb(0,0,0)" stroke-width="1" opacity="0.24313725490196078" d="M 71.5 215 L 72.5 217 L 71.5 215 Z " /><path fill="rgb(0,0,0)" stroke="rgb(0,0,0)" stroke-width="1" opacity="0.24313725490196078" d="M 440.5 215 L 439.5 217 L 440.5 215 Z " /><path fill="rgb(0,0,0)" stroke="rgb(0,0,0)" stroke-width="1" opacity="0.24313725490196078" d="M 122.5 221 L 121.5 223 L 122.5 221 Z " /><path fill="rgb(0,0,0)" stroke="rgb(0,0,0)" stroke-width="1" opacity="0.24313725490196078" d="M 389.5 221 L 390.5 223 L 389.5 221 Z " /><path fill="rgb(0,0,0)" stroke="rgb(0,0,0)" stroke-width="1" opacity="0.24313725490196078" d="M 209.5 229 L 303 229.5 L 209.5 230 L 209.5 229 Z " /><path fill="rgb(0,0,0)" stroke="rgb(0,0,0)" stroke-width="1" opacity="0.24313725490196078" d="M 44.5 230 L 45.5 232 L 44.5 230 Z " /><path fill="rgb(0,0,0)" stroke="rgb(0,0,0)" stroke-width="1" opacity="0.24313725490196078" d="M 467.5 230 L 466.5 232 L 467.5 230 Z " /><path fill="rgb(0,0,0)" stroke="rgb(0,0,0)" stroke-width="1" opacity="0.24313725490196078" d="M 153.5 257 L 152.5 259 L 153.5 257 Z " /><path fill="rgb(0,0,0)" stroke="rgb(0,0,0)" stroke-width="1" opacity="0.24313725490196078" d="M 358.5 257 L 359.5 259 L 358.5 257 Z " /><path fill="rgb(0,0,0)" stroke="rgb(0,0,0)" stroke-width="1" opacity="0.24313725490196078" d="M 132.5 268 L 135 268.5 L 132.5 269 L 132.5 268 Z " /><path fill="rgb(0,0,0)" stroke="rgb(0,0,0)" stroke-width="1" opacity="0.24313725490196078" d="M 185.5 268 L 184.5 270 L 185.5 268 Z " /><path fill="rgb(0,0,0)" stroke="rgb(0,0,0)" stroke-width="1" opacity="0.24313725490196078" d="M 326.5 268 L 327.5 270 L 326.5 268 Z " /><path fill="rgb(0,0,0)" stroke="rgb(0,0,0)" stroke-width="1" opacity="0.24313725490196078" d="M 377.5 268 L 380 268.5 L 377.5 269 L 377.5 268 Z " /><path fill="rgb(0,0,0)" stroke="rgb(0,0,0)" stroke-width="1" opacity="0.24313725490196078" d="M 176.5 277 L 175.5 279 L 176.5 277 Z " /><path fill="rgb(0,0,0)" stroke="rgb(0,0,0)" stroke-width="1" opacity="0.24313725490196078" d="M 335.5 277 L 336.5 279 L 335.5 277 Z " /><path fill="rgb(0,0,0)" stroke="rgb(0,0,0)" stroke-width="1" opacity="0.24313725490196078" d="M 30.5 282 L 29.5 284 L 30.5 282 Z " /><path fill="rgb(0,0,0)" stroke="rgb(0,0,0)" stroke-width="1" opacity="0.24313725490196078" d="M 481.5 282 L 482.5 284 L 481.5 282 Z " /><path fill="rgb(0,0,0)" stroke="rgb(0,0,0)" stroke-width="1" opacity="0.24313725490196078" d="M 25.5 286 L 18.5 294 L 25.5 286 Z " /><path fill="rgb(0,0,0)" stroke="rgb(0,0,0)" stroke-width="1" opacity="0.24313725490196078" d="M 486.5 286 L 493.5 294 L 486.5 286 Z " /><path fill="rgb(0,0,0)" stroke="rgb(0,0,0)" stroke-width="1" opacity="0.24313725490196078" d="M 73.5 298 L 128 298.5 L 73.5 299 L 73.5 298 Z " /><path fill="rgb(0,0,0)" stroke="rgb(0,0,0)" stroke-width="1" opacity="0.24313725490196078" d="M 167.5 298 L 168 300.5 L 167 300.5 L 167.5 298 Z " /><path fill="rgb(0,0,0)" stroke="rgb(0,0,0)" stroke-width="1" opacity="0.24313725490196078" d="M 344.5 298 L 345 300.5 L 344 300.5 L 344.5 298 Z " /><path fill="rgb(0,0,0)" stroke="rgb(0,0,0)" stroke-width="1" opacity="0.24313725490196078" d="M 384.5 298 L 439 298.5 L 384.5 299 L 384.5 298 Z " /><path fill="rgb(0,0,0)" stroke="rgb(0,0,0)" stroke-width="1" opacity="0.24313725490196078" d="M 136.5 300 L 137 437.5 L 136 437.5 L 136.5 300 Z " /><path fill="rgb(0,0,0)" stroke="rgb(0,0,0)" stroke-width="1" opacity="0.24313725490196078" d="M 375.5 300 L 376 437.5 L 375 437.5 L 375.5 300 Z " /><path fill="rgb(0,0,0)" stroke="rgb(0,0,0)" stroke-width="1" opacity="0.24313725490196078" d="M 44.5 310 L 42.5 313 L 44.5 310 Z " /><path fill="rgb(0,0,0)" stroke="rgb(0,0,0)" stroke-width="1" opacity="0.24313725490196078" d="M 467.5 310 L 469.5 313 L 467.5 310 Z " /><path fill="rgb(0,0,0)" stroke="rgb(0,0,0)" stroke-width="1" opacity="0.24313725490196078" d="M 33.5 432 L 35.5 435 L 33.5 432 Z " /><path fill="rgb(0,0,0)" stroke="rgb(0,0,0)" stroke-width="1" opacity="0.24313725490196078" d="M 478.5 432 L 476.5 435 L 478.5 432 Z " /><path fill="rgb(0,0,0)" stroke="rgb(0,0,0)" stroke-width="1" opacity="0.24313725490196078" d="M 11.5 453 L 14.5 457 L 11.5 453 Z " /><path fill="rgb(0,0,0)" stroke="rgb(0,0,0)" stroke-width="1" opacity="0.24313725490196078" d="M 500.5 453 L 497.5 457 L 500.5 453 Z " /><path fill="rgb(0,0,0)" stroke="rgb(0,0,0)" stroke-width="1" opacity="0.24313725490196078" d="M 43.5 468 L 469 468.5 L 43.5 469 L 43.5 468 Z " /><path fill="rgb(0,0,0)" stroke="rgb(0,0,0)" stroke-width="1" opacity="1" d="M 249.5 44 L 270.5 45 L 288.5 50 Q 310.1 58.9 324 75.5 Q 334 87.5 340 103.5 L 344 119.5 L 345 134.5 L 344 135.5 L 343 151.5 L 338 167.5 L 329 183.5 L 319 196 L 306.5 206 L 287.5 216 L 267.5 221 L 244.5 221 L 230.5 218 L 215.5 212 L 193 196 L 183 183.5 L 174 167.5 L 169 151.5 L 167 130.5 L 168 129.5 L 169 114.5 L 174 98.5 Q 182.7 78.2 198.5 65 Q 209.2 55.7 223.5 50 L 236.5 46 L 248.5 45 L 249.5 44 Z M 253 73 L 235 77 L 217 88 Q 202 101 197 124 L 197 143 L 198 148 Q 201 161 209 170 Q 222 187 248 192 L 265 192 L 274 190 L 293 180 Q 310 168 315 143 L 315 124 L 313 115 Q 308 102 300 93 Q 291 82 278 77 L 268 74 L 253 73 Z " /><path fill="rgb(0,0,0)" stroke="rgb(0,0,0)" stroke-width="1" opacity="1" d="M 92.5 127 L 107.5 127 L 126.5 132 Q 141.8 139.2 152 151.5 Q 159.8 161.3 164 174.5 L 166 183.5 L 166 202.5 Q 160.4 231.4 140.5 246 Q 130 254 115.5 258 Q 110.7 256.8 109.5 259 L 90.5 259 Q 62.4 253.6 48 234.5 Q 40.3 224.8 36 211.5 L 34 201.5 L 34 184.5 Q 39 156.5 57.5 142 L 71.5 133 L 92.5 127 Z M 97 156 L 88 158 L 75 166 Q 66 174 63 189 L 64 203 Q 66 212 72 218 Q 80 227 94 230 Q 114 232 124 222 Q 134 214 137 199 L 136 184 Q 134 174 128 169 Q 122 162 113 158 L 104 156 L 97 156 Z " /><path fill="rgb(0,0,0)" stroke="rgb(0,0,0)" stroke-width="1" opacity="1" d="M 404.5 127 L 419.5 127 L 440.5 133 Q 453.9 139.6 463 150.5 Q 471.9 160.6 476 175.5 L 478 184.5 L 478 201.5 Q 472.8 230.3 453.5 245 Q 444 253 430.5 257 L 421.5 259 L 402.5 259 Q 374.4 253.6 360 234.5 Q 352 225 348 211.5 L 346 202.5 L 346 183.5 Q 351.3 156.3 369.5 142 L 385.5 132 L 404.5 127 Z M 409 156 L 400 158 L 387 166 Q 378 174 375 188 Q 374 207 383 217 Q 391 227 406 230 L 419 230 L 426 228 L 436 222 L 446 209 L 449 198 Q 450 177 439 168 Q 430 156 409 156 Z " /><path fill="rgb(0,0,0)" stroke="rgb(0,0,0)" stroke-width="1" opacity="1" d="M 206.5 230 L 305.5 230 Q 307.3 232.8 313.5 231 Q 343.4 237.6 359 258.5 L 367.5 271 L 376.5 269 L 447.5 269 Q 476.9 274.6 493 293.5 Q 506.7 307.8 511 331.5 L 511 340.5 L 512 341.5 L 512 423.5 L 511 424.5 L 511 432.5 L 508 441.5 L 497.5 456 L 483.5 465 L 470.5 468 L 41.5 468 L 28.5 465 Q 18.8 460.8 12 453.5 L 4 441.5 L 1 432.5 L 1 424.5 L 0 423.5 L 0 341.5 L 1 340.5 L 1 331.5 L 3 322.5 L 9 307.5 L 24.5 288 Q 37.9 275.4 58.5 270 Q 63.3 271.3 64.5 269 L 135.5 269 L 144.5 271 Q 152.8 256.3 165.5 246 L 181.5 236 L 193.5 232 L 205.5 231 L 206.5 230 Z M 211 259 L 196 262 L 184 269 L 173 281 L 168 292 L 167 303 L 166 304 L 166 438 L 168 439 L 345 439 L 346 438 L 346 304 L 343 289 L 336 277 Q 327 264 310 260 Q 303 262 302 259 L 211 259 Z M 69 298 Q 57 300 49 306 Q 35 316 30 335 L 30 428 L 31 431 Q 35 437 44 439 L 137 439 L 137 299 L 133 298 L 69 298 Z M 380 298 L 379 299 L 375 300 L 375 439 L 469 439 L 475 437 Q 480 434 482 428 L 482 335 L 474 317 Q 464 302 445 298 L 380 298 Z " /></svg>