<?xml version="1.0" standalone="no"?>
<!DOCTYPE svg PUBLIC "-//W3C//DTD SVG 20010904//EN"
 "http://www.w3.org/TR/2001/REC-SVG-20010904/DTD/svg10.dtd">
<svg version="1.0" xmlns="http://www.w3.org/2000/svg"
 width="512.000000pt" height="512.000000pt" viewBox="0 0 512.000000 512.000000"
 preserveAspectRatio="xMidYMid meet">

<g transform="translate(0.000000,512.000000) scale(0.100000,-0.100000)"
fill="#000000" stroke="none">
<path d="M2270 4836 c-783 -107 -1443 -586 -1781 -1291 -106 -222 -182 -492
-210 -743 -15 -142 -7 -471 16 -602 83 -493 299 -914 645 -1260 346 -346 777
-567 1260 -645 188 -30 243 -15 288 77 30 60 23 114 -20 164 -42 48 -52 52
-170 69 -170 25 -303 59 -455 118 -59 22 -83 37 -87 51 -2 12 -24 139 -47 284
-41 257 -42 263 -23 277 10 7 135 106 278 219 l258 206 338 0 339 0 265 -211
c197 -157 266 -217 266 -233 0 -43 -89 -559 -98 -568 -5 -5 -51 -24 -103 -44
-128 -47 -137 -52 -165 -100 -57 -97 -2 -214 113 -239 67 -14 383 116 582 240
371 230 669 557 856 940 105 215 170 416 211 655 22 129 30 460 14 603 -55
516 -282 995 -643 1360 -352 356 -765 571 -1267 662 -126 23 -525 29 -660 11z
m535 -323 c12 -7 -11 -30 -107 -103 -67 -52 -130 -94 -138 -94 -19 0 -262 185
-254 193 20 20 464 23 499 4z m-660 -303 l255 -194 -2 -370 -3 -369 -245 -188
-245 -188 -315 161 c-173 88 -316 161 -318 163 -2 2 -46 140 -98 306 -52 167
-96 309 -98 315 -5 13 171 190 254 257 77 61 191 136 284 187 100 55 247 120
264 117 7 -1 127 -90 267 -197z m1165 174 c156 -63 351 -177 480 -281 85 -68
270 -255 270 -273 0 -8 -45 -157 -99 -330 l-99 -315 -78 -36 c-44 -19 -188
-84 -321 -144 l-241 -108 -249 190 -248 190 -3 369 -2 369 257 197 c142 109
261 198 264 198 3 0 34 -12 69 -26z m-2410 -1062 c46 -149 52 -174 39 -186
-28 -26 -301 -197 -307 -192 -8 9 44 200 83 304 44 118 116 266 125 255 3 -4
31 -86 60 -181z m3444 73 c52 -109 146 -392 146 -439 0 -13 -274 171 -282 190
-8 18 0 56 37 178 27 85 52 153 56 150 4 -2 24 -38 43 -79z m-1555 -575 c116
-88 212 -164 215 -168 3 -4 -34 -135 -82 -290 l-87 -282 -275 0 -275 0 -85
277 c-47 152 -85 282 -85 287 0 16 438 347 451 342 7 -3 107 -77 223 -166z
m-1297 -70 l294 -151 96 -310 96 -310 -197 -157 c-108 -87 -226 -181 -263
-210 l-67 -53 -303 31 c-167 17 -309 33 -316 35 -17 6 -102 186 -136 290 -60
180 -93 343 -102 505 l-6 105 293 187 c162 103 299 188 306 188 7 0 144 -68
305 -150z m2778 -43 l255 -163 3 -55 c11 -184 -78 -555 -185 -769 l-48 -95
-314 -32 -313 -33 -142 112 c-77 62 -196 156 -262 209 l-122 98 94 302 c51
166 97 306 102 311 4 4 152 72 327 151 214 96 325 141 335 136 8 -4 130 -82
270 -172z m-3019 -1453 c43 -4 82 -10 88 -14 12 -7 55 -233 49 -252 -7 -20
-308 250 -308 276 0 5 21 6 48 3 26 -4 81 -9 123 -13z m2789 8 c0 -20 -310
-302 -332 -302 -7 0 39 271 47 279 6 5 186 27 253 30 17 0 32 -3 32 -7z"/>
</g>
</svg>
