<svg width="512" height="512" version="1.1" xmlns="http://www.w3.org/2000/svg" desc="Created with imagetracer.js version 1.2.6" ><path fill="rgb(0,0,0)" stroke="rgb(0,0,0)" stroke-width="1" opacity="0.8901960784313725" d="M 89.5 188 L 90 192.5 L 89 192.5 L 89.5 188 Z " /><path fill="rgb(0,0,0)" stroke="rgb(0,0,0)" stroke-width="1" opacity="0.8901960784313725" d="M 481.5 189 L 482 193.5 L 481 193.5 L 481.5 189 Z " /><path fill="rgb(0,0,0)" stroke="rgb(0,0,0)" stroke-width="1" opacity="0.8901960784313725" d="M 118.5 196 L 119 199.5 L 118 199.5 L 118.5 196 Z " /><path fill="rgb(0,0,0)" stroke="rgb(0,0,0)" stroke-width="1" opacity="0.8901960784313725" d="M 88.5 202 L 89 204.5 L 88 204.5 L 88.5 202 Z " /><path fill="rgb(0,0,0)" stroke="rgb(0,0,0)" stroke-width="1" opacity="0.8901960784313725" d="M 480.5 203 L 481 205.5 L 480 205.5 L 480.5 203 Z " /><path fill="rgb(0,0,0)" stroke="rgb(0,0,0)" stroke-width="1" opacity="0.8901960784313725" d="M 117.5 208 L 118 210.5 L 117 210.5 L 117.5 208 Z " /><path fill="rgb(0,0,0)" stroke="rgb(0,0,0)" stroke-width="1" opacity="0.8901960784313725" d="M 87.5 211 L 88 213.5 L 87 213.5 L 87.5 211 Z " /><path fill="rgb(0,0,0)" stroke="rgb(0,0,0)" stroke-width="1" opacity="0.8901960784313725" d="M 479.5 212 L 480 214.5 L 479 214.5 L 479.5 212 Z " /><path fill="rgb(0,0,0)" stroke="rgb(0,0,0)" stroke-width="1" opacity="0.8901960784313725" d="M 423.5 365 L 422.5 367 L 423.5 365 Z " /><path fill="rgb(0,0,0)" stroke="rgb(0,0,0)" stroke-width="1" opacity="0.8901960784313725" d="M 420.5 369 L 419.5 371 L 420.5 369 Z " /><path fill="rgb(0,0,0)" stroke="rgb(0,0,0)" stroke-width="1" opacity="0.8901960784313725" d="M 455.5 370 L 454.5 372 L 455.5 370 Z " /><path fill="rgb(0,0,0)" stroke="rgb(0,0,0)" stroke-width="1" opacity="0.8901960784313725" d="M 27.5 371 L 25.5 374 L 27.5 371 Z " /><path fill="rgb(0,0,0)" stroke="rgb(0,0,0)" stroke-width="1" opacity="0.8901960784313725" d="M 453.5 373 L 452.5 375 L 453.5 373 Z " /><path fill="rgb(0,0,0)" stroke="rgb(0,0,0)" stroke-width="1" opacity="0.8901960784313725" d="M 416.5 374 L 415.5 376 L 416.5 374 Z " /><path fill="rgb(0,0,0)" stroke="rgb(0,0,0)" stroke-width="1" opacity="0.8901960784313725" d="M 23.5 376 L 21.5 379 L 23.5 376 Z " /><path fill="rgb(0,0,0)" stroke="rgb(0,0,0)" stroke-width="1" opacity="0.8901960784313725" d="M 59.5 376 L 58.5 378 L 59.5 376 Z " /><path fill="rgb(0,0,0)" stroke="rgb(0,0,0)" stroke-width="1" opacity="0.8901960784313725" d="M 451.5 376 L 450.5 378 L 451.5 376 Z " /><path fill="rgb(0,0,0)" stroke="rgb(0,0,0)" stroke-width="1" opacity="0.8901960784313725" d="M 57.5 379 L 56.5 381 L 57.5 379 Z " /><path fill="rgb(0,0,0)" stroke="rgb(0,0,0)" stroke-width="1" opacity="0.8901960784313725" d="M 411.5 380 L 408.5 384 L 411.5 380 Z " /><path fill="rgb(0,0,0)" stroke="rgb(0,0,0)" stroke-width="1" opacity="0.8901960784313725" d="M 54.5 383 L 53.5 385 L 54.5 383 Z " /><path fill="rgb(0,0,0)" stroke="rgb(0,0,0)" stroke-width="1" opacity="0.8901960784313725" d="M 446.5 383 L 445.5 385 L 446.5 383 Z " /><path fill="rgb(0,0,0)" stroke="rgb(0,0,0)" stroke-width="1" opacity="0.8901960784313725" d="M 14.5 386 L 10.5 391 L 14.5 386 Z " /><path fill="rgb(0,0,0)" stroke="rgb(0,0,0)" stroke-width="1" opacity="0.8901960784313725" d="M 51.5 387 L 50.5 389 L 51.5 387 Z " /><path fill="rgb(0,0,0)" stroke="rgb(0,0,0)" stroke-width="1" opacity="0.8901960784313725" d="M 440.5 391 L 439.5 393 L 440.5 391 Z " /><path fill="rgb(0,0,0)" stroke="rgb(0,0,0)" stroke-width="1" opacity="0.8901960784313725" d="M 436.5 396 L 435.5 398 L 436.5 396 Z " /><path fill="rgb(0,0,0)" stroke="rgb(0,0,0)" stroke-width="1" opacity="0.8901960784313725" d="M 431.5 402 L 425.5 409 L 431.5 402 Z " /><path fill="rgb(0,0,0)" stroke="rgb(0,0,0)" stroke-width="1" opacity="0.8901960784313725" d="M 421.5 412 L 417.5 417 L 421.5 412 Z " /><path fill="rgb(0,0,0)" stroke="rgb(0,0,0)" stroke-width="1" opacity="1" d="M 195.5 31 Q 204.1 31.9 208 37.5 L 211 45.5 L 211 61 L 285.5 61 L 286 60.5 L 286 45.5 Q 287.2 37.7 292.5 34 L 301.5 31 Q 309.3 32.2 313 37.5 L 316 45.5 L 316 61 L 391.5 61 L 392 60.5 L 392 45.5 Q 393.2 37.7 398.5 34 L 407.5 31 Q 415.3 32.2 419 37.5 L 422 45.5 L 422 61 L 497.5 61 Q 505.3 62.2 509 67.5 L 512 75.5 L 512 466.5 Q 510.8 474.3 505.5 478 L 497.5 481 L 104.5 481 Q 96.7 479.8 93 474.5 L 90 466.5 L 90 421 L 14.5 421 Q 6.7 419.8 3 414.5 L 0 405.5 Q 2 395.5 9.5 391 L 15 386.5 Q 33.6 367.1 47 342.5 Q 66.4 307.9 78 265.5 L 86 227.5 L 88 205.5 L 89 204.5 L 89 193.5 L 90 192.5 L 90 75.5 Q 91.2 67.7 96.5 64 L 104.5 61 L 181 61 L 181 45.5 Q 182.2 37.7 187.5 34 L 195.5 31 Z M 120 91 L 120 151 L 121 151 L 482 151 L 482 91 L 422 91 L 422 107 L 419 115 Q 415 120 408 121 L 399 118 Q 393 114 392 107 L 392 92 L 392 91 L 316 91 L 316 107 L 313 115 Q 309 120 302 121 L 293 118 Q 287 114 286 107 L 286 92 L 286 91 L 211 91 L 211 107 L 208 115 Q 204 120 197 121 L 188 118 Q 182 114 181 107 L 181 92 L 181 91 L 120 91 Z M 119 181 L 118 208 L 117 209 L 116 225 L 112 244 L 112 249 L 107 271 L 96 306 Q 78 354 49 391 L 402 391 Q 436 357 456 308 L 472 259 L 478 229 L 480 207 L 481 206 L 481 195 L 482 194 L 482 182 L 482 181 L 119 181 Z M 482 321 Q 460 372 425 410 L 416 418 L 408 421 L 120 421 L 120 451 L 121 451 L 482 451 L 482 321 Z " /><path fill="rgb(0,0,0)" stroke="rgb(0,0,0)" stroke-width="1" opacity="0" d="M 0 0 L 511.5 0 L 512 0.5 L 512 70.5 L 511 70.5 L 505.5 63 L 501.5 61 L 422 61 L 422 41.5 L 415.5 33 Q 411.5 29.5 402.5 31 L 394 37.5 L 392 41.5 L 392 61 L 316.5 61 L 316 60.5 L 316 41.5 L 309.5 33 Q 305.5 29.5 296.5 31 L 288 37.5 L 286 41.5 L 286 61 L 211.5 61 L 211 60.5 L 211 41.5 L 204.5 33 Q 200.5 29.5 191.5 31 L 183 37.5 L 181 41.5 L 181 61 L 100.5 61 L 92 67.5 L 90 71.5 L 90 177.5 L 89 178.5 L 89 196.5 L 88 197.5 L 88 207.5 L 87 208.5 L 85 229.5 L 78 262.5 L 67 297.5 L 49 337.5 Q 33.2 367.2 10.5 390 L 2 397.5 L 0.5 401 L 0 0 Z " /><path fill="rgb(0,0,0)" stroke="rgb(0,0,0)" stroke-width="1" opacity="0" d="M 120 91 L 180.5 91 L 181 91.5 L 181 110.5 L 187.5 119 Q 191.5 122.5 200.5 121 L 209 114.5 L 211 110.5 L 211 91 L 285.5 91 L 286 91.5 L 286 110.5 L 292.5 119 Q 296.5 122.5 305.5 121 L 314 114.5 L 316 110.5 L 316 91 L 391.5 91 L 392 91.5 L 392 110.5 L 398.5 119 Q 402.5 122.5 411.5 121 L 420 114.5 L 422 110.5 L 422 91 L 482 91 L 482 151 L 120.5 151 L 120 150.5 L 120 91 Z " /><path fill="rgb(0,0,0)" stroke="rgb(0,0,0)" stroke-width="1" opacity="0" d="M 120 181 L 480.5 181 L 481 181.5 L 481 197.5 L 480 198.5 L 480 207.5 L 479 208.5 L 477 230.5 L 472 255.5 L 466 277.5 L 454 310.5 Q 434.4 357.9 400.5 391 L 50 390.5 Q 65 371.5 77 349.5 L 90 322.5 L 100 296.5 L 108 269.5 L 115 236.5 L 117 215.5 L 118 214.5 L 118 205.5 L 119 204.5 L 120 181 Z " /><path fill="rgb(0,0,0)" stroke="rgb(0,0,0)" stroke-width="1" opacity="0" d="M 481.5 323 L 482 451 L 120.5 451 L 120 450.5 L 120 421 L 411.5 421 L 426 409.5 Q 460.4 372.9 481.5 323 Z " /><path fill="rgb(0,0,0)" stroke="rgb(0,0,0)" stroke-width="1" opacity="0" d="M 0.5 411 L 6.5 419 L 10.5 421 L 90 421 L 90 470.5 L 96.5 479 L 100.5 481 L 501.5 481 L 510 474.5 L 511.5 471 L 512 512 L 0.5 512 L 0 511.5 L 0.5 411 Z " /><path fill="rgb(0,0,0)" stroke="rgb(0,0,0)" stroke-width="1" opacity="0.4392156862745098" d="M 187.5 33 L 183.5 38 L 187.5 33 Z " /><path fill="rgb(0,0,0)" stroke="rgb(0,0,0)" stroke-width="1" opacity="0.4392156862745098" d="M 204.5 33 L 208.5 38 L 204.5 33 Z " /><path fill="rgb(0,0,0)" stroke="rgb(0,0,0)" stroke-width="1" opacity="0.4392156862745098" d="M 292.5 33 L 288.5 38 L 292.5 33 Z " /><path fill="rgb(0,0,0)" stroke="rgb(0,0,0)" stroke-width="1" opacity="0.4392156862745098" d="M 309.5 33 L 313.5 38 L 309.5 33 Z " /><path fill="rgb(0,0,0)" stroke="rgb(0,0,0)" stroke-width="1" opacity="0.4392156862745098" d="M 398.5 33 L 394.5 38 L 398.5 33 Z " /><path fill="rgb(0,0,0)" stroke="rgb(0,0,0)" stroke-width="1" opacity="0.4392156862745098" d="M 415.5 33 L 419.5 38 L 415.5 33 Z " /><path fill="rgb(0,0,0)" stroke="rgb(0,0,0)" stroke-width="1" opacity="0.4392156862745098" d="M 96.5 63 L 92.5 68 L 96.5 63 Z " /><path fill="rgb(0,0,0)" stroke="rgb(0,0,0)" stroke-width="1" opacity="0.4392156862745098" d="M 505.5 63 L 509.5 68 L 505.5 63 Z " /><path fill="rgb(0,0,0)" stroke="rgb(0,0,0)" stroke-width="1" opacity="0.4392156862745098" d="M 183.5 114 L 187.5 119 L 183.5 114 Z " /><path fill="rgb(0,0,0)" stroke="rgb(0,0,0)" stroke-width="1" opacity="0.4392156862745098" d="M 208.5 114 L 204.5 119 L 208.5 114 Z " /><path fill="rgb(0,0,0)" stroke="rgb(0,0,0)" stroke-width="1" opacity="0.4392156862745098" d="M 288.5 114 L 292.5 119 L 288.5 114 Z " /><path fill="rgb(0,0,0)" stroke="rgb(0,0,0)" stroke-width="1" opacity="0.4392156862745098" d="M 313.5 114 L 309.5 119 L 313.5 114 Z " /><path fill="rgb(0,0,0)" stroke="rgb(0,0,0)" stroke-width="1" opacity="0.4392156862745098" d="M 394.5 114 L 398.5 119 L 394.5 114 Z " /><path fill="rgb(0,0,0)" stroke="rgb(0,0,0)" stroke-width="1" opacity="0.4392156862745098" d="M 419.5 114 L 415.5 119 L 419.5 114 Z " /><path fill="rgb(0,0,0)" stroke="rgb(0,0,0)" stroke-width="1" opacity="0.4392156862745098" d="M 89.5 178 L 90 187.5 L 89 187.5 L 89.5 178 Z " /><path fill="rgb(0,0,0)" stroke="rgb(0,0,0)" stroke-width="1" opacity="0.4392156862745098" d="M 481.5 181 L 482 188.5 L 481 188.5 L 481.5 181 Z " /><path fill="rgb(0,0,0)" stroke="rgb(0,0,0)" stroke-width="1" opacity="0.4392156862745098" d="M 119.5 183 L 120 190.5 L 119 190.5 L 119.5 183 Z " /><path fill="rgb(0,0,0)" stroke="rgb(0,0,0)" stroke-width="1" opacity="0.4392156862745098" d="M 88.5 197 L 89 201.5 L 88 201.5 L 88.5 197 Z " /><path fill="rgb(0,0,0)" stroke="rgb(0,0,0)" stroke-width="1" opacity="0.4392156862745098" d="M 480.5 198 L 481 202.5 L 480 202.5 L 480.5 198 Z " /><path fill="rgb(0,0,0)" stroke="rgb(0,0,0)" stroke-width="1" opacity="0.4392156862745098" d="M 118.5 200 L 119 204.5 L 118 204.5 L 118.5 200 Z " /><path fill="rgb(0,0,0)" stroke="rgb(0,0,0)" stroke-width="1" opacity="0.4392156862745098" d="M 87.5 208 L 88 210.5 L 87 210.5 L 87.5 208 Z " /><path fill="rgb(0,0,0)" stroke="rgb(0,0,0)" stroke-width="1" opacity="0.4392156862745098" d="M 479.5 208 L 480 211.5 L 479 211.5 L 479.5 208 Z " /><path fill="rgb(0,0,0)" stroke="rgb(0,0,0)" stroke-width="1" opacity="0.4392156862745098" d="M 117.5 211 L 118 214.5 L 117 214.5 L 117.5 211 Z " /><path fill="rgb(0,0,0)" stroke="rgb(0,0,0)" stroke-width="1" opacity="0.4392156862745098" d="M 86.5 216 L 87 218.5 L 86 218.5 L 86.5 216 Z " /><path fill="rgb(0,0,0)" stroke="rgb(0,0,0)" stroke-width="1" opacity="0.4392156862745098" d="M 478.5 217 L 479 219.5 L 478 219.5 L 478.5 217 Z " /><path fill="rgb(0,0,0)" stroke="rgb(0,0,0)" stroke-width="1" opacity="0.4392156862745098" d="M 116.5 219 L 117 222.5 L 116 222.5 L 116.5 219 Z " /><path fill="rgb(0,0,0)" stroke="rgb(0,0,0)" stroke-width="1" opacity="0.4392156862745098" d="M 85.5 223 L 86 225.5 L 85 225.5 L 85.5 223 Z " /><path fill="rgb(0,0,0)" stroke="rgb(0,0,0)" stroke-width="1" opacity="0.4392156862745098" d="M 477.5 224 L 478 226.5 L 477 226.5 L 477.5 224 Z " /><path fill="rgb(0,0,0)" stroke="rgb(0,0,0)" stroke-width="1" opacity="0.4392156862745098" d="M 115.5 227 L 116 229.5 L 115 229.5 L 115.5 227 Z " /><path fill="rgb(0,0,0)" stroke="rgb(0,0,0)" stroke-width="1" opacity="0.4392156862745098" d="M 114.5 234 L 115 236.5 L 114 236.5 L 114.5 234 Z " /><path fill="rgb(0,0,0)" stroke="rgb(0,0,0)" stroke-width="1" opacity="0.4392156862745098" d="M 83.5 235 L 84 237.5 L 83 237.5 L 83.5 235 Z " /><path fill="rgb(0,0,0)" stroke="rgb(0,0,0)" stroke-width="1" opacity="0.4392156862745098" d="M 475.5 236 L 476 238.5 L 475 238.5 L 475.5 236 Z " /><path fill="rgb(0,0,0)" stroke="rgb(0,0,0)" stroke-width="1" opacity="0.4392156862745098" d="M 464.5 356 L 463.5 358 L 464.5 356 Z " /><path fill="rgb(0,0,0)" stroke="rgb(0,0,0)" stroke-width="1" opacity="0.4392156862745098" d="M 33.5 362 L 32.5 364 L 33.5 362 Z " /><path fill="rgb(0,0,0)" stroke="rgb(0,0,0)" stroke-width="1" opacity="0.4392156862745098" d="M 424.5 363 L 423.5 365 L 424.5 363 Z " /><path fill="rgb(0,0,0)" stroke="rgb(0,0,0)" stroke-width="1" opacity="0.4392156862745098" d="M 31.5 365 L 30.5 367 L 31.5 365 Z " /><path fill="rgb(0,0,0)" stroke="rgb(0,0,0)" stroke-width="1" opacity="0.4392156862745098" d="M 458.5 366 L 457.5 368 L 458.5 366 Z " /><path fill="rgb(0,0,0)" stroke="rgb(0,0,0)" stroke-width="1" opacity="0.4392156862745098" d="M 421.5 367 L 420.5 369 L 421.5 367 Z " /><path fill="rgb(0,0,0)" stroke="rgb(0,0,0)" stroke-width="1" opacity="0.4392156862745098" d="M 28.5 369 L 27.5 371 L 28.5 369 Z " /><path fill="rgb(0,0,0)" stroke="rgb(0,0,0)" stroke-width="1" opacity="0.4392156862745098" d="M 418.5 371 L 417.5 373 L 418.5 371 Z " /><path fill="rgb(0,0,0)" stroke="rgb(0,0,0)" stroke-width="1" opacity="0.4392156862745098" d="M 24.5 374 L 23.5 376 L 24.5 374 Z " /><path fill="rgb(0,0,0)" stroke="rgb(0,0,0)" stroke-width="1" opacity="0.4392156862745098" d="M 414.5 376 L 412.5 379 L 414.5 376 Z " /><path fill="rgb(0,0,0)" stroke="rgb(0,0,0)" stroke-width="1" opacity="0.4392156862745098" d="M 450.5 378 L 449.5 380 L 450.5 378 Z " /><path fill="rgb(0,0,0)" stroke="rgb(0,0,0)" stroke-width="1" opacity="0.4392156862745098" d="M 20.5 379 L 15.5 385 L 20.5 379 Z " /><path fill="rgb(0,0,0)" stroke="rgb(0,0,0)" stroke-width="1" opacity="0.4392156862745098" d="M 56.5 381 L 55.5 383 L 56.5 381 Z " /><path fill="rgb(0,0,0)" stroke="rgb(0,0,0)" stroke-width="1" opacity="0.4392156862745098" d="M 448.5 381 L 447.5 383 L 448.5 381 Z " /><path fill="rgb(0,0,0)" stroke="rgb(0,0,0)" stroke-width="1" opacity="0.4392156862745098" d="M 407.5 384 L 401.5 391 L 407.5 384 Z " /><path fill="rgb(0,0,0)" stroke="rgb(0,0,0)" stroke-width="1" opacity="0.4392156862745098" d="M 53.5 385 L 52.5 387 L 53.5 385 Z " /><path fill="rgb(0,0,0)" stroke="rgb(0,0,0)" stroke-width="1" opacity="0.4392156862745098" d="M 445.5 385 L 444.5 387 L 445.5 385 Z " /><path fill="rgb(0,0,0)" stroke="rgb(0,0,0)" stroke-width="1" opacity="0.4392156862745098" d="M 50.5 389 L 49.5 391 L 50.5 389 Z " /><path fill="rgb(0,0,0)" stroke="rgb(0,0,0)" stroke-width="1" opacity="0.4392156862745098" d="M 442.5 389 L 441.5 391 L 442.5 389 Z " /><path fill="rgb(0,0,0)" stroke="rgb(0,0,0)" stroke-width="1" opacity="0.4392156862745098" d="M 9.5 390 L 2.5 398 L 9.5 390 Z " /><path fill="rgb(0,0,0)" stroke="rgb(0,0,0)" stroke-width="1" opacity="0.4392156862745098" d="M 439.5 393 L 437.5 396 L 439.5 393 Z " /><path fill="rgb(0,0,0)" stroke="rgb(0,0,0)" stroke-width="1" opacity="0.4392156862745098" d="M 434.5 399 L 432.5 402 L 434.5 399 Z " /><path fill="rgb(0,0,0)" stroke="rgb(0,0,0)" stroke-width="1" opacity="0.4392156862745098" d="M 425.5 409 L 422.5 413 L 425.5 409 Z " /><path fill="rgb(0,0,0)" stroke="rgb(0,0,0)" stroke-width="1" opacity="0.4392156862745098" d="M 2.5 414 L 6.5 419 L 2.5 414 Z " /><path fill="rgb(0,0,0)" stroke="rgb(0,0,0)" stroke-width="1" opacity="0.4392156862745098" d="M 416.5 417 L 415.5 419 L 416.5 417 Z " /><path fill="rgb(0,0,0)" stroke="rgb(0,0,0)" stroke-width="1" opacity="0.4392156862745098" d="M 92.5 474 L 96.5 479 L 92.5 474 Z " /><path fill="rgb(0,0,0)" stroke="rgb(0,0,0)" stroke-width="1" opacity="0.4392156862745098" d="M 509.5 474 L 505.5 479 L 509.5 474 Z " /></svg>