<svg xmlns="http://www.w3.org/2000/svg" width="24" height="24" fill="currentColor" viewBox="0 0 24 24">
  <path d="M12.002 4.25c.01 0 6.878 0 8.596.466a2.752 2.752 0 0 1 1.944 1.956C23 8.399 22.996 12 22.996 12c0 .025-.002 3.607-.458 5.328-.252.95-.997 1.7-1.944 1.956-1.716.462-8.596.462-8.596.462-.01 0-6.881 0-8.596-.462a2.752 2.752 0 0 1-1.944-1.956C1.002 15.608 1 12.025 1 12c0 0 0-3.601.462-5.332.252-.95.997-1.7 1.944-1.956 1.716-.462 8.596-.462 8.596-.462ZM9.751 15.271 15.502 12 9.751 8.729v6.543Z"/>
</svg>
